<?xml version="1.0" encoding="UTF-8"?>
<!DOCTYPE svg PUBLIC "-//W3C//DTD SVG 1.1//EN" "http://www.w3.org/Graphics/SVG/1.1/DTD/svg11.dtd">
<!-- Creator: CorelDRAW X7 -->
<svg xmlns="http://www.w3.org/2000/svg" xml:space="preserve" width="104.991mm" height="7.4083mm" version="1.1" style="shape-rendering:geometricPrecision; text-rendering:geometricPrecision; image-rendering:optimizeQuality; fill-rule:evenodd; clip-rule:evenodd"
viewBox="0 0 12428 877"
 xmlns:xlink="http://www.w3.org/1999/xlink">
 <defs>
  <style type="text/css">
   <![CDATA[
    .str0 {stroke:#FEFEFE;stroke-width:118.368;stroke-linecap:round;stroke-linejoin:round}
    .fil0 {fill:none;fill-rule:nonzero}
    .fil1 {fill:#E31E24;fill-rule:nonzero}
   ]]>
  </style>
 </defs>
 <g id="Слой_x0020_1">
  <metadata id="CorelCorpID_0Corel-Layer"/>
  <g>
   <path class="fil0 str0" d="M59 472l115 204 64 -52 -85 -152 85 -151 -64 -52 -115 203zm146 0l115 204 64 -52 -85 -152 85 -151 -64 -52 -115 203zm240 222l188 0 0 -234 99 234 217 0 -165 -324 160 -292 -207 0 -104 222 0 -222 -188 0 0 616zm793 19c184,0 272,-160 272,-327 0,-166 -88,-327 -272,-327 -185,0 -273,161 -273,327 0,167 88,327 273,327zm0 -197c-48,0 -93,-44 -93,-130 0,-86 45,-129 93,-129 47,0 92,43 92,129 0,86 -45,130 -92,130zm336 -438l0 616 188 0 0 -437 108 0 0 437 188 0 0 -616 -484 0zm521 616l193 0 19 -89 118 0 19 89 193 0 -167 -616 -207 0 -168 616zm271 -400l33 156 -66 0 33 -156zm693 197c-38,32 -78,49 -123,49 -72,0 -92,-54 -97,-90l163 0 0 -134 -156 0c9,-53 53,-84 102,-84 24,0 68,10 111,49l0 -176c-49,-32 -104,-46 -152,-46 -145,0 -253,131 -253,318 0,189 95,336 254,336 47,0 102,-11 151,-43l0 -179zm33 203l182 0 22 -320 71 320 141 0 72 -320 21 320 183 0 -66 -616 -207 0 -73 351 -73 -351 -207 0 -66 616zm995 19c184,0 272,-160 272,-327 0,-166 -88,-327 -272,-327 -184,0 -272,161 -272,327 0,167 88,327 272,327zm0 -197c-48,0 -93,-44 -93,-130 0,-86 45,-129 93,-129 48,0 93,43 93,129 0,86 -45,130 -93,130zm493 178l188 0 0 -234 99 234 216 0 -164 -324 160 -292 -207 0 -104 222 0 -222 -188 0 0 616zm541 0l188 0 0 -191 57 0c150,0 188,-124 188,-213 0,-88 -38,-212 -188,-212l-245 0 0 616zm188 -456l21 0c16,0 45,3 45,52 0,25 -7,53 -45,53l-21 0 0 -105zm306 -160l0 616 170 0 131 -296 0 296 179 0 0 -616 -169 0 -132 307 0 -307 -179 0zm565 616l188 0 0 -225 94 0 0 225 188 0 0 -616 -188 0 0 212 -94 0 0 -212 -188 0 0 616zm555 -616l0 616 170 0 131 -296 0 296 179 0 0 -616 -169 0 -132 307 0 -307 -179 0zm565 616l381 0 0 124 160 0 0 -302 -57 0 0 -438 -188 0 0 438 -108 0 0 -438 -188 0 0 616zm588 0l188 0 0 -616 -188 0 0 616zm455 -435c28,-21 70,-39 106,-39 45,0 54,22 54,44 0,37 -24,42 -57,42l-69 0 0 154 74 0c42,0 55,15 55,42 0,38 -27,51 -54,51 -36,0 -79,-31 -104,-59l-68 139c79,61 126,80 211,80 120,0 203,-78 203,-190 0,-104 -67,-138 -91,-147l0 -2c47,-20 82,-73 82,-139 0,-99 -75,-176 -203,-176 -68,0 -135,20 -193,58l54 142zm365 435l193 0 19 -89 118 0 19 89 193 0 -167 -616 -208 0 -167 616zm271 -400l33 156 -66 0 33 -156zm595 400l160 0 0 -616 -231 0 0 170 71 0 0 446zm531 -616l0 238c0,65 -2,193 -94,200l0 302 160 0 0 -124 245 0 0 124 160 0 0 -302 -57 0 0 -438 -414 0zm169 179l57 0 0 259 -100 0c27,-29 43,-74 43,-172l0 -87zm349 437l329 0 0 -178 -141 0 0 -59 127 0 0 -148 -127 0 0 -52 141 0 0 -179 -329 0 0 616zm400 0l188 0 0 -225 94 0 0 225 188 0 0 -616 -188 0 0 212 -94 0 0 -212 -188 0 0 616zm555 0l243 0c154,0 185,-107 185,-194 0,-87 -33,-194 -190,-194l-50 0 0 -228 -188 0 0 616zm188 -148l0 -92 23 0c17,0 43,4 43,46 0,43 -26,46 -43,46l-23 0zm457 -74l-115 -203 -64 52 84 151 -84 152 64 52 115 -204zm145 0l-115 -203 -63 52 84 151 -84 152 63 52 115 -204z"/>
   <path id="1" class="fil1" d="M59 472l115 204 64 -52 -85 -152 85 -151 -64 -52 -115 203zm146 0l115 204 64 -52 -85 -152 85 -151 -64 -52 -115 203zm240 222l188 0 0 -234 99 234 217 0 -165 -324 160 -292 -207 0 -104 222 0 -222 -188 0 0 616zm793 19c184,0 272,-160 272,-327 0,-166 -88,-327 -272,-327 -185,0 -273,161 -273,327 0,167 88,327 273,327zm0 -197c-48,0 -93,-44 -93,-130 0,-86 45,-129 93,-129 47,0 92,43 92,129 0,86 -45,130 -92,130zm336 -438l0 616 188 0 0 -437 108 0 0 437 188 0 0 -616 -484 0zm521 616l193 0 19 -89 118 0 19 89 193 0 -167 -616 -207 0 -168 616zm271 -400l33 156 -66 0 33 -156zm693 197c-38,32 -78,49 -123,49 -72,0 -92,-54 -97,-90l163 0 0 -134 -156 0c9,-53 53,-84 102,-84 24,0 68,10 111,49l0 -176c-49,-32 -104,-46 -152,-46 -145,0 -253,131 -253,318 0,189 95,336 254,336 47,0 102,-11 151,-43l0 -179zm33 203l182 0 22 -320 71 320 141 0 72 -320 21 320 183 0 -66 -616 -207 0 -73 351 -73 -351 -207 0 -66 616zm995 19c184,0 272,-160 272,-327 0,-166 -88,-327 -272,-327 -184,0 -272,161 -272,327 0,167 88,327 272,327zm0 -197c-48,0 -93,-44 -93,-130 0,-86 45,-129 93,-129 48,0 93,43 93,129 0,86 -45,130 -93,130zm493 178l188 0 0 -234 99 234 216 0 -164 -324 160 -292 -207 0 -104 222 0 -222 -188 0 0 616zm541 0l188 0 0 -191 57 0c150,0 188,-124 188,-213 0,-88 -38,-212 -188,-212l-245 0 0 616zm188 -456l21 0c16,0 45,3 45,52 0,25 -7,53 -45,53l-21 0 0 -105zm306 -160l0 616 170 0 131 -296 0 296 179 0 0 -616 -169 0 -132 307 0 -307 -179 0zm565 616l188 0 0 -225 94 0 0 225 188 0 0 -616 -188 0 0 212 -94 0 0 -212 -188 0 0 616zm555 -616l0 616 170 0 131 -296 0 296 179 0 0 -616 -169 0 -132 307 0 -307 -179 0zm565 616l381 0 0 124 160 0 0 -302 -57 0 0 -438 -188 0 0 438 -108 0 0 -438 -188 0 0 616zm588 0l188 0 0 -616 -188 0 0 616zm455 -435c28,-21 70,-39 106,-39 45,0 54,22 54,44 0,37 -24,42 -57,42l-69 0 0 154 74 0c42,0 55,15 55,42 0,38 -27,51 -54,51 -36,0 -79,-31 -104,-59l-68 139c79,61 126,80 211,80 120,0 203,-78 203,-190 0,-104 -67,-138 -91,-147l0 -2c47,-20 82,-73 82,-139 0,-99 -75,-176 -203,-176 -68,0 -135,20 -193,58l54 142zm365 435l193 0 19 -89 118 0 19 89 193 0 -167 -616 -208 0 -167 616zm271 -400l33 156 -66 0 33 -156zm595 400l160 0 0 -616 -231 0 0 170 71 0 0 446zm531 -616l0 238c0,65 -2,193 -94,200l0 302 160 0 0 -124 245 0 0 124 160 0 0 -302 -57 0 0 -438 -414 0zm169 179l57 0 0 259 -100 0c27,-29 43,-74 43,-172l0 -87zm349 437l329 0 0 -178 -141 0 0 -59 127 0 0 -148 -127 0 0 -52 141 0 0 -179 -329 0 0 616zm400 0l188 0 0 -225 94 0 0 225 188 0 0 -616 -188 0 0 212 -94 0 0 -212 -188 0 0 616zm555 0l243 0c154,0 185,-107 185,-194 0,-87 -33,-194 -190,-194l-50 0 0 -228 -188 0 0 616zm188 -148l0 -92 23 0c17,0 43,4 43,46 0,43 -26,46 -43,46l-23 0zm457 -74l-115 -203 -64 52 84 151 -84 152 64 52 115 -204zm145 0l-115 -203 -63 52 84 151 -84 152 63 52 115 -204z"/>
  </g>
 </g>
</svg>
