<?xml version="1.0" encoding="UTF-8"?>
<!DOCTYPE svg PUBLIC "-//W3C//DTD SVG 1.1//EN" "http://www.w3.org/Graphics/SVG/1.1/DTD/svg11.dtd">
<!-- Creator: CorelDRAW X7 -->
<svg xmlns="http://www.w3.org/2000/svg" xml:space="preserve" width="45.9881mm" height="26.9487mm" version="1.1" style="shape-rendering:geometricPrecision; text-rendering:geometricPrecision; image-rendering:optimizeQuality; fill-rule:evenodd; clip-rule:evenodd"
viewBox="0 0 1965 1151"
 xmlns:xlink="http://www.w3.org/1999/xlink">
 <defs>
  <style type="text/css">
   <![CDATA[
    .fil0 {fill:#E31E24;fill-rule:nonzero}
   ]]>
  </style>
 </defs>
 <g id="Слой_x0020_1">
  <metadata id="CorelCorpID_0Corel-Layer"/>
  <path class="fil0" d="M48 264l28 -22 -36 -65 36 -65 -28 -22 -48 87 48 87zm62 0l27 -22 -36 -65 36 -65 -27 -22 -48 87 48 87zm61 8l79 0 0 -100 42 100 91 0 -69 -139 67 -125 -87 0 -44 95 0 -95 -79 0 0 264zm337 8c78,0 114,-69 114,-140 0,-71 -36,-140 -114,-140 -78,0 -115,70 -115,140 0,70 37,140 115,140zm0 -84c-21,0 -39,-19 -39,-56 0,-37 18,-55 39,-55 19,0 38,18 38,55 0,37 -19,56 -38,56zm150 -188l0 264 79 0 0 -187 46 0 0 187 79 0 0 -264 -204 0zm225 264l81 0 8 -38 50 0 8 38 81 0 -70 -264 -87 0 -71 264zm101 -104l13 -68 14 68 -27 0zm301 23c-16,11 -32,15 -45,15 -31,0 -39,-23 -42,-38l69 0 0 -58 -65 0c2,-24 22,-36 43,-36 16,0 27,7 40,16l0 -74c-16,-12 -40,-16 -58,-16 -73,0 -106,74 -106,136 0,72 33,144 107,144 21,0 38,-4 57,-15l0 -74zm194 81l30 -137 10 137 77 0 -28 -264 -88 0 -31 151 -30 -151 -87 0 -28 264 77 0 9 -137 30 137 59 0zm249 8c78,0 114,-69 114,-140 0,-71 -36,-140 -114,-140 -78,0 -115,70 -115,140 0,70 37,140 115,140zm0 -84c-20,0 -39,-19 -39,-56 0,-37 19,-55 39,-55 20,0 39,18 39,55 0,37 -19,56 -39,56zm-1501 492l80 0 0 -101 41 101 92 0 -70 -139 68 -125 -88 0 -43 95 0 -95 -80 0 0 264zm234 0l79 0 0 -82 17 0c69,0 86,-54 86,-91 0,-38 -16,-91 -86,-91l-96 0 0 264zm79 -196l9 0c7,0 18,2 18,23 0,20 -10,22 -18,22l-9 0 0 -45zm137 -68l0 264 72 0 55 -127 0 127 76 0 0 -264 -72 0 -55 131 0 -131 -76 0zm250 264l80 0 0 -97 39 0 0 97 80 0 0 -264 -80 0 0 91 -39 0 0 -91 -80 0 0 264zm246 -264l0 264 71 0 56 -127 0 127 75 0 0 -264 -71 0 -55 131 0 -131 -76 0zm250 264l161 0 0 53 67 0 0 -130 -24 0 0 -187 -79 0 0 187 -46 0 0 -187 -79 0 0 264zm255 0l79 0 0 -264 -79 0 0 264zm-1513 220c12,-8 28,-13 39,-13 7,0 23,0 23,19 0,12 -6,18 -28,18l-26 0 0 66 28 0c14,0 27,3 27,18 0,8 -3,22 -23,22 -13,0 -28,-10 -38,-21l-37 52c36,35 69,37 92,37 50,0 85,-33 85,-81 0,-39 -22,-57 -46,-63l0 -1c22,-7 42,-26 42,-60 0,-38 -28,-75 -85,-75 -31,0 -54,8 -85,27l32 55zm150 191l81 0 8 -39 50 0 8 39 81 0 -70 -265 -87 0 -71 265zm100 -105l14 -67 14 67 -28 0zm300 105l67 0 0 -265 -97 0 0 73 30 0 0 192zm263 -265l0 103c0,27 -1,82 -40,85l0 129 68 0 0 -52 103 0 0 52 67 0 0 -129 -24 0 0 -188 -174 0zm71 77l24 0 0 111 -42 0c10,-11 18,-28 18,-74l0 -37zm153 188l139 0 0 -77 -59 0 0 -25 53 0 0 -64 -53 0 0 -22 59 0 0 -77 -139 0 0 265zm179 0l79 0 0 -97 40 0 0 97 79 0 0 -265 -79 0 0 91 -40 0 0 -91 -79 0 0 265zm246 0l95 0c70,0 85,-47 85,-84 0,-37 -15,-83 -88,-83l-13 0 0 -98 -79 0 0 265zm79 -64l0 -40 10 0c17,0 18,14 18,20 0,19 -11,20 -18,20l-10 0zm149 -119l-27 22 36 65 -36 65 27 23 49 -88 -49 -87zm62 0l-27 22 35 65 -35 65 27 23 48 -88 -48 -87z"/>
 </g>
</svg>
