<?xml version="1.0" encoding="UTF-8"?>
<!DOCTYPE svg PUBLIC "-//W3C//DTD SVG 1.1//EN" "http://www.w3.org/Graphics/SVG/1.1/DTD/svg11.dtd">
<!-- Creator: CorelDRAW X7 -->
<svg xmlns="http://www.w3.org/2000/svg" xml:space="preserve" width="100.546mm" height="5.8505mm" version="1.1" style="shape-rendering:geometricPrecision; text-rendering:geometricPrecision; image-rendering:optimizeQuality; fill-rule:evenodd; clip-rule:evenodd"
viewBox="0 0 8262 481"
 xmlns:xlink="http://www.w3.org/1999/xlink">
 <defs>
  <style type="text/css">
   <![CDATA[
    .str0 {stroke:#FEFEFE;stroke-width:82.1754;stroke-linecap:round;stroke-linejoin:round}
    .str1 {stroke:#FEFEFE;stroke-width:41.0877;stroke-linecap:round;stroke-linejoin:round}
    .fil0 {fill:none;fill-rule:nonzero}
    .fil1 {fill:#E31E24;fill-rule:nonzero}
   ]]>
  </style>
 </defs>
 <g id="Слой_x0020_1">
  <metadata id="CorelCorpID_0Corel-Layer"/>
  <g>
   <path class="fil0 str0" d="M201 440c40,0 160,-9 160,-190 0,-185 -119,-194 -160,-194 -40,0 -160,9 -160,194 0,181 120,190 160,190zm0 -104c-41,0 -42,-51 -42,-86 0,-37 1,-91 42,-91 41,0 42,54 42,91 0,35 -1,86 -42,86zm492 -177l0 -95 -234 0 -43 206 7 0c22,-6 55,-11 79,-11 66,0 75,29 75,43 0,27 -19,45 -70,45 -38,0 -65,-13 -93,-33l-4 0 -13 96c14,8 63,30 140,30 121,0 173,-70 173,-136 0,-62 -45,-117 -144,-117 -12,0 -28,2 -38,3l6 -31 159 0zm216 281c40,0 160,-9 160,-190 0,-185 -119,-194 -160,-194 -40,0 -160,9 -160,194 0,181 120,190 160,190zm0 -104c-41,0 -42,-51 -42,-86 0,-37 1,-91 42,-91 41,0 42,54 42,91 0,35 -1,86 -42,86zm435 96l125 0 0 -368 -180 0 0 101 55 0 0 267zm534 -273l0 -95 -233 0 -43 206 6 0c22,-6 56,-11 79,-11 66,0 75,29 75,43 0,27 -19,45 -69,45 -38,0 -66,-13 -94,-33l-3 0 -13 96c14,8 63,30 139,30 121,0 173,-70 173,-136 0,-62 -44,-117 -144,-117 -11,0 -28,2 -38,3l6 -31 159 0zm74 273l144 0 176 -368 -332 0 0 99 151 0 -139 269zm623 0l118 0 0 -70 44 0 0 -96 -44 0 0 -202 -140 0 -151 204 0 94 173 0 0 70zm7 -166l-73 0 73 -101 0 101zm481 -107l0 -95 -233 0 -44 206 7 0c22,-6 55,-11 79,-11 66,0 75,29 75,43 0,27 -19,45 -70,45 -37,0 -65,-13 -93,-33l-3 0 -14 96c15,8 64,30 140,30 121,0 173,-70 173,-136 0,-62 -45,-117 -144,-117 -12,0 -28,2 -38,3l6 -31 159 0zm339 281c40,0 160,-9 160,-190 0,-185 -119,-194 -160,-194 -40,0 -160,9 -160,194 0,181 120,190 160,190zm0 -104c-41,0 -42,-51 -42,-86 0,-37 1,-91 42,-91 41,0 42,54 42,91 0,35 -1,86 -42,86zm212 96l144 0 175 -368 -332 0 0 99 151 0 -138 269z"/>
   <path id="1" class="fil1" d="M201 440c40,0 160,-9 160,-190 0,-185 -119,-194 -160,-194 -40,0 -160,9 -160,194 0,181 120,190 160,190zm0 -104c-41,0 -42,-51 -42,-86 0,-37 1,-91 42,-91 41,0 42,54 42,91 0,35 -1,86 -42,86zm492 -177l0 -95 -234 0 -43 206 7 0c22,-6 55,-11 79,-11 66,0 75,29 75,43 0,27 -19,45 -70,45 -38,0 -65,-13 -93,-33l-4 0 -13 96c14,8 63,30 140,30 121,0 173,-70 173,-136 0,-62 -45,-117 -144,-117 -12,0 -28,2 -38,3l6 -31 159 0zm216 281c40,0 160,-9 160,-190 0,-185 -119,-194 -160,-194 -40,0 -160,9 -160,194 0,181 120,190 160,190zm0 -104c-41,0 -42,-51 -42,-86 0,-37 1,-91 42,-91 41,0 42,54 42,91 0,35 -1,86 -42,86zm435 96l125 0 0 -368 -180 0 0 101 55 0 0 267zm534 -273l0 -95 -233 0 -43 206 6 0c22,-6 56,-11 79,-11 66,0 75,29 75,43 0,27 -19,45 -69,45 -38,0 -66,-13 -94,-33l-3 0 -13 96c14,8 63,30 139,30 121,0 173,-70 173,-136 0,-62 -44,-117 -144,-117 -11,0 -28,2 -38,3l6 -31 159 0zm74 273l144 0 176 -368 -332 0 0 99 151 0 -139 269zm623 0l118 0 0 -70 44 0 0 -96 -44 0 0 -202 -140 0 -151 204 0 94 173 0 0 70zm7 -166l-73 0 73 -101 0 101zm481 -107l0 -95 -233 0 -44 206 7 0c22,-6 55,-11 79,-11 66,0 75,29 75,43 0,27 -19,45 -70,45 -37,0 -65,-13 -93,-33l-3 0 -14 96c15,8 64,30 140,30 121,0 173,-70 173,-136 0,-62 -45,-117 -144,-117 -12,0 -28,2 -38,3l6 -31 159 0zm339 281c40,0 160,-9 160,-190 0,-185 -119,-194 -160,-194 -40,0 -160,9 -160,194 0,181 120,190 160,190zm0 -104c-41,0 -42,-51 -42,-86 0,-37 1,-91 42,-91 41,0 42,54 42,91 0,35 -1,86 -42,86zm212 96l144 0 175 -368 -332 0 0 99 151 0 -138 269z"/>
  </g>
  <g>
   <path class="fil0 str0" d="M4515 425c40,0 160,-9 160,-191 0,-184 -120,-193 -160,-193 -41,0 -160,9 -160,193 0,182 120,191 160,191zm0 -104c-41,0 -42,-51 -42,-87 0,-36 1,-90 42,-90 41,0 42,54 42,90 0,36 -1,87 -42,87zm325 -273l-98 138c-20,27 -35,56 -35,97 0,94 72,142 160,142 101,0 163,-52 163,-131 0,-82 -62,-131 -139,-122l91 -124 -142 0zm28 284c-22,0 -37,-17 -37,-39 0,-21 14,-38 37,-38 28,0 37,23 37,38 0,16 -9,39 -37,39zm212 85l144 0 176 -369 -332 0 0 100 151 0 -139 269zm577 0l126 0 0 -369 -181 0 0 102 55 0 0 267zm430 0l91 -129c17,-23 38,-56 38,-108 0,-75 -53,-139 -160,-139 -102,0 -164,52 -164,131 0,82 62,131 140,121l-99 124 154 0zm-32 -284c23,0 36,18 36,39 0,21 -14,39 -36,39 -28,0 -37,-23 -37,-39 0,-16 9,-39 37,-39zm311 284l125 0 0 -369 -180 0 0 102 55 0 0 267zm657 -273l0 -96 -234 0 -43 207 7 0c22,-6 55,-11 79,-11 66,0 75,29 75,43 0,27 -19,45 -70,45 -38,0 -65,-13 -93,-33l-4 0 -13 96c15,7 64,30 140,30 121,0 173,-70 173,-136 0,-62 -45,-117 -144,-117 -12,0 -28,2 -38,3l6 -31 159 0zm354 0l0 -96 -234 0 -43 207 7 0c22,-6 55,-11 79,-11 66,0 75,29 75,43 0,27 -19,45 -70,45 -38,0 -65,-13 -93,-33l-4 0 -13 96c15,7 64,30 140,30 121,0 173,-70 173,-136 0,-62 -45,-117 -144,-117 -12,0 -28,2 -38,3l6 -31 159 0zm310 -96l-98 138c-19,27 -35,56 -35,97 0,94 73,142 161,142 101,0 163,-52 163,-131 0,-82 -62,-131 -140,-122l92 -124 -143 0zm29 284c-23,0 -37,-17 -37,-39 0,-21 13,-38 37,-38 28,0 36,23 36,38 0,16 -8,39 -36,39zm502 85l0 -99 -91 0c51,-48 94,-88 94,-155 0,-78 -60,-122 -152,-122 -135,0 -154,98 -155,144l114 0c1,-14 7,-41 36,-41 21,0 34,13 34,34 0,14 -6,24 -14,33l-183 206 317 0z"/>
   <path id="1" class="fil1" d="M4515 425c40,0 160,-9 160,-191 0,-184 -120,-193 -160,-193 -41,0 -160,9 -160,193 0,182 120,191 160,191zm0 -104c-41,0 -42,-51 -42,-87 0,-36 1,-90 42,-90 41,0 42,54 42,90 0,36 -1,87 -42,87zm325 -273l-98 138c-20,27 -35,56 -35,97 0,94 72,142 160,142 101,0 163,-52 163,-131 0,-82 -62,-131 -139,-122l91 -124 -142 0zm28 284c-22,0 -37,-17 -37,-39 0,-21 14,-38 37,-38 28,0 37,23 37,38 0,16 -9,39 -37,39zm212 85l144 0 176 -369 -332 0 0 100 151 0 -139 269zm577 0l126 0 0 -369 -181 0 0 102 55 0 0 267zm430 0l91 -129c17,-23 38,-56 38,-108 0,-75 -53,-139 -160,-139 -102,0 -164,52 -164,131 0,82 62,131 140,121l-99 124 154 0zm-32 -284c23,0 36,18 36,39 0,21 -14,39 -36,39 -28,0 -37,-23 -37,-39 0,-16 9,-39 37,-39zm311 284l125 0 0 -369 -180 0 0 102 55 0 0 267zm657 -273l0 -96 -234 0 -43 207 7 0c22,-6 55,-11 79,-11 66,0 75,29 75,43 0,27 -19,45 -70,45 -38,0 -65,-13 -93,-33l-4 0 -13 96c15,7 64,30 140,30 121,0 173,-70 173,-136 0,-62 -45,-117 -144,-117 -12,0 -28,2 -38,3l6 -31 159 0zm354 0l0 -96 -234 0 -43 207 7 0c22,-6 55,-11 79,-11 66,0 75,29 75,43 0,27 -19,45 -70,45 -38,0 -65,-13 -93,-33l-4 0 -13 96c15,7 64,30 140,30 121,0 173,-70 173,-136 0,-62 -45,-117 -144,-117 -12,0 -28,2 -38,3l6 -31 159 0zm310 -96l-98 138c-19,27 -35,56 -35,97 0,94 73,142 161,142 101,0 163,-52 163,-131 0,-82 -62,-131 -140,-122l92 -124 -143 0zm29 284c-23,0 -37,-17 -37,-39 0,-21 13,-38 37,-38 28,0 36,23 36,38 0,16 -8,39 -36,39zm502 85l0 -99 -91 0c51,-48 94,-88 94,-155 0,-78 -60,-122 -152,-122 -135,0 -154,98 -155,144l114 0c1,-14 7,-41 36,-41 21,0 34,13 34,34 0,14 -6,24 -14,33l-183 206 317 0z"/>
  </g>
  <g>
   <path class="fil0 str1" d="M4023 237c0,48 39,87 87,87 48,0 87,-39 87,-87 0,-49 -39,-87 -87,-87 -48,0 -87,38 -87,87z"/>
   <path id="1" class="fil1" d="M4023 237c0,48 39,87 87,87 48,0 87,-39 87,-87 0,-49 -39,-87 -87,-87 -48,0 -87,38 -87,87z"/>
  </g>
 </g>
</svg>
