<?xml version="1.0" encoding="UTF-8"?>
<!DOCTYPE svg PUBLIC "-//W3C//DTD SVG 1.1//EN" "http://www.w3.org/Graphics/SVG/1.1/DTD/svg11.dtd">
<!-- Creator: CorelDRAW X7 -->
<svg xmlns="http://www.w3.org/2000/svg" xml:space="preserve" width="51.1412mm" height="11.6707mm" version="1.1" style="shape-rendering:geometricPrecision; text-rendering:geometricPrecision; image-rendering:optimizeQuality; fill-rule:evenodd; clip-rule:evenodd"
viewBox="0 0 2625 599"
 xmlns:xlink="http://www.w3.org/1999/xlink">
 <defs>
  <style type="text/css">
   <![CDATA[
    .fil0 {fill:#2B2A29;fill-rule:nonzero}
   ]]>
  </style>
 </defs>
 <g id="Слой_x0020_1">
  <metadata id="CorelCorpID_0Corel-Layer"/>
  <path class="fil0" d="M372 233l121 0c74,0 89,-40 89,-72 0,-31 -15,-68 -89,-68l-31 0 0 -21 98 0 0 -65 -188 0 0 226zm90 -55l0 -33 9 0c9,0 23,1 23,16 0,16 -14,17 -23,17l-9 0zm129 -171l96 163 -31 63 95 0 97 -226 -93 0 -26 69 -32 -69 -106 0zm276 226l90 0 0 -70 27 0c72,0 90,-46 90,-78 0,-33 -18,-78 -90,-78l-117 0 0 226zm90 -167l10 0c7,0 22,0 22,19 0,9 -4,19 -22,19l-10 0 0 -38zm267 173c89,0 131,-58 131,-119 0,-61 -42,-120 -131,-120 -88,0 -130,59 -130,120 0,61 42,119 130,119zm0 -72c-22,0 -44,-16 -44,-47 0,-32 22,-48 44,-48 23,0 45,16 45,48 0,31 -22,47 -45,47zm162 -160l0 226 133 0c63,0 77,-40 77,-63 0,-31 -21,-53 -50,-58l0 -1c18,-5 39,-21 39,-47 0,-17 -7,-57 -72,-57l-127 0zm90 86l0 -32 9 0c15,0 20,8 20,16 0,8 -5,16 -20,16l-9 0zm0 85l0 -33 11 0c9,0 23,1 23,16 0,16 -14,17 -23,17l-11 0zm270 61c88,0 131,-58 131,-119 0,-61 -43,-120 -131,-120 -88,0 -131,59 -131,120 0,61 43,119 131,119zm0 -72c-23,0 -45,-16 -45,-47 0,-32 22,-48 45,-48 23,0 45,16 45,48 0,31 -22,47 -45,47zm252 -79l0 -81 -91 0 0 226 91 0 0 -84 21 0c6,55 56,90 123,90 76,0 131,-44 131,-119 0,-75 -56,-120 -131,-120 -72,0 -114,38 -123,88l-21 0zm145 79c-18,0 -45,-10 -45,-47 0,-37 27,-48 45,-48 23,0 44,16 44,48 0,32 -21,47 -44,47zm-2143 199l96 164 -30 62 94 0 98 -226 -94 0 -26 69 -32 -69 -106 0zm452 140c-13,12 -30,21 -50,21 -23,0 -50,-12 -50,-45 0,-21 10,-50 50,-50 16,0 36,7 50,24l0 -79c-18,-13 -43,-17 -62,-17 -57,0 -124,37 -124,119 0,73 52,120 125,120 28,0 47,-6 61,-14l0 -79zm61 86l91 0 0 -160 47 0 0 -66 -185 0 0 66 47 0 0 160zm138 0l93 0 9 -33 56 0 9 33 93 0 -80 -226 -100 0 -80 226zm130 -147l16 58 -32 0 16 -58zm148 147l91 0 0 -82 45 0 0 82 90 0 0 -226 -90 0 0 78 -45 0 0 -78 -91 0 0 226zm387 7c89,0 131,-59 131,-120 0,-61 -42,-119 -131,-119 -88,0 -130,58 -130,119 0,61 42,120 130,120zm0 -72c-22,0 -44,-16 -44,-48 0,-31 22,-47 44,-47 23,0 45,16 45,47 0,32 -22,48 -45,48zm162 -161l0 226 133 0c63,0 77,-40 77,-63 0,-30 -21,-52 -50,-57l0 -1c18,-6 39,-22 39,-47 0,-18 -7,-58 -72,-58l-127 0zm90 86l0 -31 9 0c15,0 20,8 20,15 0,8 -5,16 -20,16l-9 0zm0 86l0 -34 11 0c9,0 23,2 23,17 0,16 -14,17 -23,17l-11 0zm149 54l91 0 0 -86 47 86 104 0 -79 -119 77 -107 -99 0 -50 82 0 -82 -91 0 0 226zm381 7c88,0 130,-59 130,-120 0,-61 -42,-119 -130,-119 -89,0 -131,58 -131,119 0,61 42,120 131,120zm0 -72c-23,0 -45,-16 -45,-48 0,-31 22,-47 45,-47 23,0 44,16 44,47 0,32 -21,48 -44,48zm252 -80l0 -81 -91 0 0 226 91 0 0 -84 21 0c6,56 56,91 123,91 75,0 131,-45 131,-120 0,-74 -56,-119 -131,-119 -72,0 -114,38 -123,87l-21 0zm145 80c-18,0 -45,-11 -45,-48 0,-37 27,-47 45,-47 23,0 44,15 44,47 0,32 -21,48 -44,48z"/>
 </g>
</svg>
