<?xml version="1.0" encoding="UTF-8"?>
<!DOCTYPE svg PUBLIC "-//W3C//DTD SVG 1.1//EN" "http://www.w3.org/Graphics/SVG/1.1/DTD/svg11.dtd">
<!-- Creator: CorelDRAW X7 -->
<svg xmlns="http://www.w3.org/2000/svg" xml:space="preserve" width="74.3836mm" height="5.0298mm" version="1.1" style="shape-rendering:geometricPrecision; text-rendering:geometricPrecision; image-rendering:optimizeQuality; fill-rule:evenodd; clip-rule:evenodd"
viewBox="0 0 5198 351"
 xmlns:xlink="http://www.w3.org/1999/xlink">
 <defs>
  <style type="text/css">
   <![CDATA[
    .fil0 {fill:#E31E24;fill-rule:nonzero}
   ]]>
  </style>
 </defs>
 <g id="Слой_x0020_1">
  <metadata id="CorelCorpID_0Corel-Layer"/>
  <path class="fil0" d="M57 9l0 110c0,30 -1,90 -57,92l0 140 97 0 0 -57 149 0 0 57 97 0 0 -140 -34 0 0 -202 -252 0zm103 82l34 0 0 120 -60 0c16,-13 26,-34 26,-79l0 -41zm364 212c112,0 166,-74 166,-152 0,-77 -54,-151 -166,-151 -112,0 -165,74 -165,151 0,78 53,152 165,152zm0 -92c-29,0 -56,-20 -56,-60 0,-40 27,-60 56,-60 29,0 57,20 57,60 0,40 -28,60 -57,60zm236 -202l0 110c0,30 -1,90 -57,92l0 140 97 0 0 -57 148 0 0 57 97 0 0 -140 -34 0 0 -202 -251 0zm103 82l34 0 0 120 -61 0c17,-13 27,-34 27,-79l0 -41zm182 203l118 0 11 -41 72 0 11 41 118 0 -102 -285 -126 0 -102 285zm165 -185l20 72 -40 0 20 -72zm225 185l114 0 0 -203 60 0 0 -82 -234 0 0 82 60 0 0 203zm202 0l115 0 0 -108 60 108 131 0 -100 -150 97 -135 -125 0 -63 102 0 -102 -115 0 0 285zm482 9c112,0 165,-74 165,-152 0,-77 -53,-151 -165,-151 -112,0 -166,74 -166,151 0,78 54,152 166,152zm0 -92c-29,0 -57,-20 -57,-60 0,-40 28,-60 57,-60 29,0 56,20 56,60 0,40 -27,60 -56,60zm204 -202l0 285 169 0c79,0 97,-50 97,-79 0,-39 -27,-67 -64,-73l0 -1c24,-7 50,-28 50,-60 0,-22 -9,-72 -91,-72l-161 0zm114 108l0 -40 11 0c20,0 25,10 25,20 0,10 -5,20 -25,20l-11 0zm0 109l0 -43 14 0c11,0 29,2 29,21 0,20 -18,22 -29,22l-14 0zm189 68l114 0 0 -285 -114 0 0 285zm261 -285l0 285 114 0 0 -203 65 0 0 203 115 0 0 -285 -294 0zm498 294c112,0 165,-74 165,-152 0,-77 -53,-151 -165,-151 -112,0 -166,74 -166,151 0,78 54,152 166,152zm0 -92c-29,0 -57,-20 -57,-60 0,-40 28,-60 57,-60 29,0 56,20 56,60 0,40 -27,60 -56,60zm427 -26c-16,15 -38,26 -64,26 -29,0 -63,-14 -63,-57 0,-26 13,-63 64,-63 20,0 46,9 63,31l0 -100c-23,-16 -55,-22 -78,-22 -73,0 -158,48 -158,151 0,92 66,152 159,152 35,0 59,-8 77,-18l0 -100zm72 -176l0 146c0,32 -1,62 -40,62 -6,0 -11,-1 -18,-3l0 80c12,2 27,5 43,5 115,0 117,-62 117,-101l0 -107 46 0 0 203 114 0 0 -285 -262 0zm288 0l122 207 -39 78 120 0 123 -285 -118 0 -33 87 -41 -87 -134 0zm349 285l114 0 0 -203 86 0 0 -82 -200 0 0 285zm231 -285l0 285 103 0 80 -137 0 137 109 0 0 -285 -103 0 -80 142 0 -142 -109 0zm343 125c0,31 26,44 52,44 25,0 51,-13 51,-44 0,-29 -26,-44 -51,-44 -26,0 -52,15 -52,44zm0 123c0,30 26,44 52,44 25,0 51,-14 51,-44 0,-30 -26,-44 -51,-44 -26,0 -52,14 -52,44z"/>
 </g>
</svg>
