<?xml version="1.0" encoding="UTF-8"?>
<!DOCTYPE svg PUBLIC "-//W3C//DTD SVG 1.1//EN" "http://www.w3.org/Graphics/SVG/1.1/DTD/svg11.dtd">
<!-- Creator: CorelDRAW X7 -->
<svg xmlns="http://www.w3.org/2000/svg" xml:space="preserve" width="95.5867mm" height="28.4722mm" version="1.1" style="shape-rendering:geometricPrecision; text-rendering:geometricPrecision; image-rendering:optimizeQuality; fill-rule:evenodd; clip-rule:evenodd"
viewBox="0 0 8705 2593"
 xmlns:xlink="http://www.w3.org/1999/xlink">
 <defs>
  <style type="text/css">
   <![CDATA[
    .str0 {stroke:#FEFEFE;stroke-width:68.2989;stroke-linecap:round;stroke-linejoin:round}
    .fil0 {fill:none;fill-rule:nonzero}
    .fil1 {fill:#393185;fill-rule:nonzero}
   ]]>
  </style>
 </defs>
 <g id="Слой_x0020_1">
  <metadata id="CorelCorpID_0Corel-Layer"/>
  <g id="_689492448">
   <g>
    <path class="fil0 str0" d="M93 303c35,0 61,-25 61,-61 0,-32 -25,-58 -58,-58 -36,0 -62,27 -62,60 0,35 26,59 59,59zm247 -251l-42 346 110 0c94,0 142,-39 143,-126 0,-48 -19,-91 -102,-91l-48 0 7 -60 131 0 9 -69 -208 0zm78 278l-36 0 11 -83 40 0c25,0 36,9 36,32 0,30 -13,51 -51,51zm396 -170l-73 0 -13 108c-4,34 -33,69 -54,69 -18,0 -21,-13 -16,-51l18 -126 -73 0 -20 148c-11,71 16,94 61,94 29,0 53,-15 70,-39l2 1 0 0c-9,64 -33,75 -66,75 -20,0 -40,-5 -60,-19l-22 56c27,17 57,23 86,23 60,0 122,-25 134,-133l26 -206zm53 0l-42 335 73 0 14 -108 2 -1c14,12 33,16 55,16 64,0 114,-64 114,-149 0,-54 -25,-98 -75,-98 -30,0 -54,16 -72,41l0 -1 4 -35 -73 0zm83 178c-13,0 -25,-5 -32,-15l0 -6c9,-63 39,-97 65,-97 17,0 27,17 27,40 0,40 -21,78 -60,78zm236 -209c27,0 45,-19 45,-44 0,-24 -17,-41 -44,-41 -27,0 -45,18 -45,43 0,24 18,42 44,42zm-46 31l-29 238 73 0 30 -238 -74 0zm342 0l-73 0 -12 91 -66 1 11 -92 -73 0 -29 238 73 0 11 -87 66 0 -11 87 74 0 29 -238zm266 0l-73 0 -12 91 -66 1 11 -92 -73 0 -29 238 73 0 11 -87 66 0 -11 87 73 0 30 -238zm246 0l-102 0c-63,0 -109,27 -109,87 0,18 9,41 30,54l0 1c-18,32 -29,38 -50,40l2 59c5,1 16,1 25,1 39,0 60,-24 81,-68l6 -14 25 0 -9 78 72 0 29 -238zm-86 112l-21 1c-18,0 -31,-7 -31,-24 0,-21 17,-30 38,-30l21 0 -7 53zm300 130c46,0 78,-18 103,-52l-56 -36c-15,17 -28,23 -42,23 -20,0 -33,-16 -33,-41 0,-40 23,-76 55,-76 14,0 26,6 34,21l56 -42c-19,-28 -49,-44 -91,-44 -83,0 -127,70 -127,144 0,67 39,103 101,103zm307 -130l0 -1c24,-9 45,-26 45,-54 0,-41 -42,-62 -89,-62 -88,0 -135,68 -135,147 0,63 34,100 108,100 60,0 111,-27 111,-79 0,-23 -14,-43 -40,-51zm-73 -13l-34 7c9,-33 33,-53 55,-53 12,0 21,7 21,17 0,16 -21,24 -42,29zm6 85c-23,0 -39,-10 -42,-38l28 -5c28,-5 49,-3 49,18 0,20 -22,25 -35,25zm349 -123c0,-45 -43,-66 -82,-66 -80,0 -130,66 -130,147 -1,62 39,100 99,100 47,0 79,-17 104,-52l-54 -32c-14,18 -28,24 -44,24 -14,0 -30,-9 -34,-30 70,-8 140,-31 141,-91zm-70 10c-1,24 -33,33 -69,37 9,-33 30,-52 51,-52 11,0 18,5 18,15zm118 -71l-41 335 73 0 13 -108 2 -1c15,12 33,16 56,16 64,0 114,-64 114,-149 0,-54 -26,-98 -76,-98 -30,0 -54,16 -72,41l0 -1 4 -35 -73 0zm83 178c-13,0 -25,-5 -32,-15l0 -6c9,-63 39,-97 66,-97 16,0 27,17 27,40 0,40 -21,78 -61,78zm263 64c91,0 134,-82 136,-196 1,-80 -25,-170 -160,-172l-14 61c15,1 32,3 46,7 35,10 50,30 54,76l-1 1c-15,-12 -32,-17 -51,-17 -60,0 -112,58 -112,135 0,64 38,105 102,105zm3 -64c-14,0 -32,-12 -32,-44 0,-34 22,-70 55,-70 11,0 24,3 35,14 -5,57 -27,100 -58,100zm391 -178l-105 0c-48,0 -75,26 -84,71 -3,19 -7,36 -10,49 -8,35 -19,59 -37,59 -3,0 -8,-1 -13,-2l-11 59c9,4 22,5 32,5 44,0 76,-27 91,-83 7,-28 12,-53 18,-74 3,-15 10,-24 28,-24l11 0 -22 178 73 0 29 -238zm127 242c91,0 133,-67 133,-145 0,-65 -41,-102 -102,-102 -84,0 -132,68 -132,145 0,65 41,102 101,102zm5 -65c-15,0 -32,-13 -32,-41 0,-36 20,-76 52,-76 13,0 34,8 34,42 0,39 -21,75 -54,75zm333 -65l0 -1c23,-9 45,-26 45,-54 0,-41 -43,-62 -89,-62 -88,0 -135,68 -135,147 0,63 33,100 108,100 59,0 111,-27 111,-79 0,-23 -15,-43 -40,-51zm-73 -13l-34 7c8,-33 32,-53 55,-53 12,0 21,7 21,17 0,16 -21,24 -42,29zm5 85c-22,0 -38,-10 -42,-38l29 -5c27,-5 48,-3 48,18 0,20 -22,25 -35,25zm206 58c30,0 53,-15 71,-39l1 0 -3 35 72 0 29 -238 -73 0 -13 109c-5,35 -33,68 -54,68 -17,0 -21,-13 -16,-51l19 -126 -73 0 -21 148c-10,71 17,94 61,94zm436 -242l-73 0 -11 91 -67 1 12 -92 -74 0 -29 238 73 0 11 -87 66 0 -10 87 73 0 29 -238z"/>
    <path id="1" class="fil1" d="M93 303c35,0 61,-25 61,-61 0,-32 -25,-58 -58,-58 -36,0 -62,27 -62,60 0,35 26,59 59,59zm247 -251l-42 346 110 0c94,0 142,-39 143,-126 0,-48 -19,-91 -102,-91l-48 0 7 -60 131 0 9 -69 -208 0zm78 278l-36 0 11 -83 40 0c25,0 36,9 36,32 0,30 -13,51 -51,51zm396 -170l-73 0 -13 108c-4,34 -33,69 -54,69 -18,0 -21,-13 -16,-51l18 -126 -73 0 -20 148c-11,71 16,94 61,94 29,0 53,-15 70,-39l2 1 0 0c-9,64 -33,75 -66,75 -20,0 -40,-5 -60,-19l-22 56c27,17 57,23 86,23 60,0 122,-25 134,-133l26 -206zm53 0l-42 335 73 0 14 -108 2 -1c14,12 33,16 55,16 64,0 114,-64 114,-149 0,-54 -25,-98 -75,-98 -30,0 -54,16 -72,41l0 -1 4 -35 -73 0zm83 178c-13,0 -25,-5 -32,-15l0 -6c9,-63 39,-97 65,-97 17,0 27,17 27,40 0,40 -21,78 -60,78zm236 -209c27,0 45,-19 45,-44 0,-24 -17,-41 -44,-41 -27,0 -45,18 -45,43 0,24 18,42 44,42zm-46 31l-29 238 73 0 30 -238 -74 0zm342 0l-73 0 -12 91 -66 1 11 -92 -73 0 -29 238 73 0 11 -87 66 0 -11 87 74 0 29 -238zm266 0l-73 0 -12 91 -66 1 11 -92 -73 0 -29 238 73 0 11 -87 66 0 -11 87 73 0 30 -238zm246 0l-102 0c-63,0 -109,27 -109,87 0,18 9,41 30,54l0 1c-18,32 -29,38 -50,40l2 59c5,1 16,1 25,1 39,0 60,-24 81,-68l6 -14 25 0 -9 78 72 0 29 -238zm-86 112l-21 1c-18,0 -31,-7 -31,-24 0,-21 17,-30 38,-30l21 0 -7 53zm300 130c46,0 78,-18 103,-52l-56 -36c-15,17 -28,23 -42,23 -20,0 -33,-16 -33,-41 0,-40 23,-76 55,-76 14,0 26,6 34,21l56 -42c-19,-28 -49,-44 -91,-44 -83,0 -127,70 -127,144 0,67 39,103 101,103zm307 -130l0 -1c24,-9 45,-26 45,-54 0,-41 -42,-62 -89,-62 -88,0 -135,68 -135,147 0,63 34,100 108,100 60,0 111,-27 111,-79 0,-23 -14,-43 -40,-51zm-73 -13l-34 7c9,-33 33,-53 55,-53 12,0 21,7 21,17 0,16 -21,24 -42,29zm6 85c-23,0 -39,-10 -42,-38l28 -5c28,-5 49,-3 49,18 0,20 -22,25 -35,25zm349 -123c0,-45 -43,-66 -82,-66 -80,0 -130,66 -130,147 -1,62 39,100 99,100 47,0 79,-17 104,-52l-54 -32c-14,18 -28,24 -44,24 -14,0 -30,-9 -34,-30 70,-8 140,-31 141,-91zm-70 10c-1,24 -33,33 -69,37 9,-33 30,-52 51,-52 11,0 18,5 18,15zm118 -71l-41 335 73 0 13 -108 2 -1c15,12 33,16 56,16 64,0 114,-64 114,-149 0,-54 -26,-98 -76,-98 -30,0 -54,16 -72,41l0 -1 4 -35 -73 0zm83 178c-13,0 -25,-5 -32,-15l0 -6c9,-63 39,-97 66,-97 16,0 27,17 27,40 0,40 -21,78 -61,78zm263 64c91,0 134,-82 136,-196 1,-80 -25,-170 -160,-172l-14 61c15,1 32,3 46,7 35,10 50,30 54,76l-1 1c-15,-12 -32,-17 -51,-17 -60,0 -112,58 -112,135 0,64 38,105 102,105zm3 -64c-14,0 -32,-12 -32,-44 0,-34 22,-70 55,-70 11,0 24,3 35,14 -5,57 -27,100 -58,100zm391 -178l-105 0c-48,0 -75,26 -84,71 -3,19 -7,36 -10,49 -8,35 -19,59 -37,59 -3,0 -8,-1 -13,-2l-11 59c9,4 22,5 32,5 44,0 76,-27 91,-83 7,-28 12,-53 18,-74 3,-15 10,-24 28,-24l11 0 -22 178 73 0 29 -238zm127 242c91,0 133,-67 133,-145 0,-65 -41,-102 -102,-102 -84,0 -132,68 -132,145 0,65 41,102 101,102zm5 -65c-15,0 -32,-13 -32,-41 0,-36 20,-76 52,-76 13,0 34,8 34,42 0,39 -21,75 -54,75zm333 -65l0 -1c23,-9 45,-26 45,-54 0,-41 -43,-62 -89,-62 -88,0 -135,68 -135,147 0,63 33,100 108,100 59,0 111,-27 111,-79 0,-23 -15,-43 -40,-51zm-73 -13l-34 7c8,-33 32,-53 55,-53 12,0 21,7 21,17 0,16 -21,24 -42,29zm5 85c-22,0 -38,-10 -42,-38l29 -5c27,-5 48,-3 48,18 0,20 -22,25 -35,25zm206 58c30,0 53,-15 71,-39l1 0 -3 35 72 0 29 -238 -73 0 -13 109c-5,35 -33,68 -54,68 -17,0 -21,-13 -16,-51l19 -126 -73 0 -21 148c-10,71 17,94 61,94zm436 -242l-73 0 -11 91 -67 1 12 -92 -74 0 -29 238 73 0 11 -87 66 0 -10 87 73 0 29 -238z"/>
   </g>
   <g>
    <path class="fil0 str0" d="M4868 324c34,0 61,-26 61,-61 0,-33 -25,-58 -59,-58 -35,0 -61,26 -61,60 0,34 25,59 59,59zm476 -252l-79 0 -19 155c-20,12 -39,15 -54,15 -27,0 -34,-12 -29,-47l16 -123 -78 0 -17 130c-9,71 13,108 74,108 25,0 58,-8 80,-20l-16 129 79 0 43 -347zm86 351c30,0 53,-15 71,-39l1 0 -3 35 71 0 30 -239 -74 0 -13 110c-4,35 -33,68 -53,68 -17,0 -21,-13 -16,-51l18 -127 -73 0 -20 149c-10,70 17,94 61,94zm296 0c46,0 79,-18 104,-52l-57 -36c-14,17 -28,23 -41,23 -20,0 -33,-16 -33,-42 0,-40 22,-75 55,-75 14,0 26,6 34,21l56 -42c-20,-29 -49,-44 -92,-44 -82,0 -127,70 -127,143 0,68 39,104 101,104zm162 -243l-29 239 73 0 11 -93c7,-56 38,-85 55,-85 16,0 17,15 13,49l-17 129 72 0 12 -88c8,-61 39,-90 56,-90 15,0 17,15 13,49l-17 129 72 0 19 -143c9,-69 -8,-100 -55,-100 -33,0 -60,12 -80,36l-3 0c-6,-25 -24,-36 -51,-36 -28,0 -53,12 -73,34l-2 0 4 -30 -73 0zm396 0l-30 239 72 0 8 -64c10,-4 20,-9 29,-15l5 15c12,40 30,68 67,68 12,0 17,0 22,-1l17 -59c-22,-2 -35,-8 -45,-42l-8 -21c33,-31 58,-71 68,-120l-76 0c-10,39 -28,74 -68,103l-1 -1 13 -102 -73 0zm290 243c26,0 50,-14 68,-40l1 1 -4 35 74 0 29 -239 -74 0 -2 17 -1 0c-13,-13 -31,-21 -56,-21 -63,0 -113,65 -113,150 0,55 26,97 78,97zm23 -65c-17,0 -27,-15 -27,-38 0,-35 19,-79 51,-79 15,0 29,6 40,17l-1 7c-8,60 -38,93 -63,93zm284 -178l-29 239 71 0 8 -64c10,-4 20,-9 29,-15l5 15c12,40 30,68 67,68 12,0 17,0 22,-1l17 -59c-22,-2 -35,-8 -45,-42l-8 -21c34,-31 58,-71 68,-120l-76 0c-10,39 -28,74 -68,103l-1 -1 13 -102 -73 0zm250 0l-42 335 73 0 13 -107 2 -1c15,11 34,16 56,16 64,0 114,-65 114,-150 0,-54 -26,-97 -75,-97 -31,0 -55,15 -72,41l-1 -1 5 -36 -73 0zm82 178c-12,0 -24,-5 -32,-14l1 -7c9,-62 38,-96 65,-96 17,0 27,17 27,40 0,39 -21,77 -61,77zm229 65c30,0 53,-15 71,-39l1 0 -3 35 71 0 30 -239 -73 0 -14 110c-4,35 -33,68 -53,68 -17,0 -21,-13 -16,-51l18 -127 -72 0 -21 149c-10,70 17,94 61,94zm436 -243l-73 0 -12 92 -66 1 11 -93 -73 0 -29 239 73 0 11 -87 66 0 -11 87 74 0 29 -239zm93 243c30,0 53,-15 70,-39l1 0 -2 35 71 0 30 -239 -74 0 -13 110c-4,35 -33,68 -53,68 -18,0 -21,-13 -16,-51l18 -127 -73 0 -20 149c-10,70 16,94 61,94zm465 -62l-32 0c-14,-1 -22,-5 -19,-27l19 -154 -74 0 -13 111c-5,33 -33,67 -54,67 -16,0 -21,-13 -15,-51l18 -127 -72 0 -21 149c-10,70 16,94 61,94 31,0 59,-19 77,-48l1 0c0,1 1,3 1,5 6,25 21,41 50,42l-7 59 56 0 24 -120zm115 63c74,0 118,-47 119,-118 1,-48 -29,-78 -66,-78 -28,0 -51,14 -62,31l-1 0 12 -79 -72 0 -20 136c-10,72 17,108 90,108zm5 -61c-21,0 -28,-15 -26,-34 3,-23 20,-40 41,-40 10,0 26,5 26,26 0,24 -16,48 -41,48z"/>
    <path id="1" class="fil1" d="M4868 324c34,0 61,-26 61,-61 0,-33 -25,-58 -59,-58 -35,0 -61,26 -61,60 0,34 25,59 59,59zm476 -252l-79 0 -19 155c-20,12 -39,15 -54,15 -27,0 -34,-12 -29,-47l16 -123 -78 0 -17 130c-9,71 13,108 74,108 25,0 58,-8 80,-20l-16 129 79 0 43 -347zm86 351c30,0 53,-15 71,-39l1 0 -3 35 71 0 30 -239 -74 0 -13 110c-4,35 -33,68 -53,68 -17,0 -21,-13 -16,-51l18 -127 -73 0 -20 149c-10,70 17,94 61,94zm296 0c46,0 79,-18 104,-52l-57 -36c-14,17 -28,23 -41,23 -20,0 -33,-16 -33,-42 0,-40 22,-75 55,-75 14,0 26,6 34,21l56 -42c-20,-29 -49,-44 -92,-44 -82,0 -127,70 -127,143 0,68 39,104 101,104zm162 -243l-29 239 73 0 11 -93c7,-56 38,-85 55,-85 16,0 17,15 13,49l-17 129 72 0 12 -88c8,-61 39,-90 56,-90 15,0 17,15 13,49l-17 129 72 0 19 -143c9,-69 -8,-100 -55,-100 -33,0 -60,12 -80,36l-3 0c-6,-25 -24,-36 -51,-36 -28,0 -53,12 -73,34l-2 0 4 -30 -73 0zm396 0l-30 239 72 0 8 -64c10,-4 20,-9 29,-15l5 15c12,40 30,68 67,68 12,0 17,0 22,-1l17 -59c-22,-2 -35,-8 -45,-42l-8 -21c33,-31 58,-71 68,-120l-76 0c-10,39 -28,74 -68,103l-1 -1 13 -102 -73 0zm290 243c26,0 50,-14 68,-40l1 1 -4 35 74 0 29 -239 -74 0 -2 17 -1 0c-13,-13 -31,-21 -56,-21 -63,0 -113,65 -113,150 0,55 26,97 78,97zm23 -65c-17,0 -27,-15 -27,-38 0,-35 19,-79 51,-79 15,0 29,6 40,17l-1 7c-8,60 -38,93 -63,93zm284 -178l-29 239 71 0 8 -64c10,-4 20,-9 29,-15l5 15c12,40 30,68 67,68 12,0 17,0 22,-1l17 -59c-22,-2 -35,-8 -45,-42l-8 -21c34,-31 58,-71 68,-120l-76 0c-10,39 -28,74 -68,103l-1 -1 13 -102 -73 0zm250 0l-42 335 73 0 13 -107 2 -1c15,11 34,16 56,16 64,0 114,-65 114,-150 0,-54 -26,-97 -75,-97 -31,0 -55,15 -72,41l-1 -1 5 -36 -73 0zm82 178c-12,0 -24,-5 -32,-14l1 -7c9,-62 38,-96 65,-96 17,0 27,17 27,40 0,39 -21,77 -61,77zm229 65c30,0 53,-15 71,-39l1 0 -3 35 71 0 30 -239 -73 0 -14 110c-4,35 -33,68 -53,68 -17,0 -21,-13 -16,-51l18 -127 -72 0 -21 149c-10,70 17,94 61,94zm436 -243l-73 0 -12 92 -66 1 11 -93 -73 0 -29 239 73 0 11 -87 66 0 -11 87 74 0 29 -239zm93 243c30,0 53,-15 70,-39l1 0 -2 35 71 0 30 -239 -74 0 -13 110c-4,35 -33,68 -53,68 -18,0 -21,-13 -16,-51l18 -127 -73 0 -20 149c-10,70 16,94 61,94zm465 -62l-32 0c-14,-1 -22,-5 -19,-27l19 -154 -74 0 -13 111c-5,33 -33,67 -54,67 -16,0 -21,-13 -15,-51l18 -127 -72 0 -21 149c-10,70 16,94 61,94 31,0 59,-19 77,-48l1 0c0,1 1,3 1,5 6,25 21,41 50,42l-7 59 56 0 24 -120zm115 63c74,0 118,-47 119,-118 1,-48 -29,-78 -66,-78 -28,0 -51,14 -62,31l-1 0 12 -79 -72 0 -20 136c-10,72 17,108 90,108zm5 -61c-21,0 -28,-15 -26,-34 3,-23 20,-40 41,-40 10,0 26,5 26,26 0,24 -16,48 -41,48z"/>
   </g>
  </g>
  <g>
   <path class="fil0 str0" d="M2013 913c34,0 61,-26 61,-61 0,-33 -25,-58 -59,-58 -35,0 -61,26 -61,60 0,34 25,59 59,59zm386 -96l124 -156 -93 0 -108 142 -1 0 17 -142 -78 0 -42 346 77 0 12 -97 33 -38 56 135 88 0 -85 -190zm206 195c91,0 133,-68 133,-145 0,-65 -41,-102 -102,-102 -84,0 -132,68 -132,144 0,66 40,103 101,103zm5 -66c-15,0 -32,-12 -32,-40 0,-37 20,-76 52,-76 13,0 33,7 33,41 0,39 -20,75 -53,75zm183 -177l-29 238 73 0 11 -88c7,-59 39,-89 61,-89 15,0 18,15 14,48l-17 129 72 0 19 -145c9,-67 -10,-97 -55,-97 -31,0 -57,13 -79,38l-1 -1 4 -33 -73 0zm316 243c27,0 51,-15 68,-40l2 0 -5 35 74 0 29 -238 -74 0 -1 17 -2 0c-13,-14 -31,-21 -56,-21 -62,0 -113,64 -113,149 0,55 27,98 78,98zm23 -65c-16,0 -27,-15 -27,-38 0,-36 19,-79 52,-79 15,0 28,6 39,17l-1 7c-8,60 -37,93 -63,93zm410 -178l-73 0 -11 92 -67 0 11 -92 -73 0 -29 238 73 0 11 -86 66 -1 -10 87 73 0 29 -238zm266 0l-73 0 -12 92 -66 0 11 -92 -73 0 -29 238 73 0 11 -86 66 -1 -11 87 74 0 29 -238zm246 0l-102 0c-63,0 -109,27 -109,87 0,18 9,42 30,55l0 1c-18,32 -29,38 -50,39l2 60c5,0 16,1 25,1 39,0 60,-25 81,-68l7 -14 24 0 -9 77 72 0 29 -238zm-86 113l-21 0c-18,0 -31,-6 -31,-24 0,-20 17,-30 38,-30l21 0 -7 54zm227 -113l-30 238 72 0 7 -63c11,-4 20,-10 30,-16l5 16c12,40 30,68 67,68 12,0 16,-1 22,-1l16 -60c-21,-1 -34,-7 -45,-41l-7 -21c33,-32 58,-72 68,-120l-76 0c-10,39 -28,74 -68,102l-1 0 13 -102 -73 0zm289 243c27,0 51,-15 69,-40l1 0 -4 35 73 0 30 -238 -74 0 -2 17 -1 0c-13,-14 -32,-21 -57,-21 -62,0 -112,64 -112,149 0,55 26,98 77,98zm24 -65c-17,0 -28,-15 -28,-38 0,-36 20,-79 52,-79 15,0 29,6 40,17l-1 7c-9,60 -38,93 -63,93zm410 -178l-74 0 -11 92 -66 0 11 -92 -73 0 -29 238 73 0 10 -86 67 -1 -11 87 73 0 30 -238zm102 243c27,0 51,-15 68,-40l2 0 -5 35 74 0 29 -238 -73 0 -2 17 -2 0c-13,-14 -31,-21 -56,-21 -62,0 -113,64 -113,149 0,55 27,98 78,98zm23 -65c-16,0 -27,-15 -27,-38 0,-36 20,-79 52,-79 15,0 29,6 39,17l-1 7c-8,60 -37,93 -63,93zm406 -178l-105 0c-47,0 -75,27 -84,71 -3,19 -7,36 -10,50 -8,35 -19,58 -37,58 -3,0 -8,-1 -13,-2l-11 60c9,3 22,5 32,5 44,0 76,-27 91,-84 7,-28 12,-53 18,-73 3,-16 10,-25 28,-25l11 0 -22 178 73 0 29 -238zm101 -31c27,0 46,-18 46,-43 0,-24 -18,-42 -44,-42 -27,0 -46,18 -46,43 0,24 18,42 44,42zm-45 31l-29 238 73 0 29 -238 -73 0zm178 243c63,0 108,-27 108,-79 0,-24 -14,-43 -39,-52l0 -1c24,-7 45,-26 45,-53 0,-42 -43,-62 -94,-62 -32,0 -70,11 -88,21l27 53c16,-8 37,-13 56,-13 16,0 27,4 27,16 0,11 -11,21 -38,22l-30 0 -6 47 38 -1c17,0 30,4 30,17 0,17 -17,24 -40,24 -20,0 -45,-5 -66,-22l-25 59c25,16 51,24 95,24zm214 0c27,0 51,-15 68,-40l2 0 -5 35 74 0 29 -238 -73 0 -2 17 -2 0c-12,-14 -31,-21 -56,-21 -62,0 -113,64 -113,149 0,55 27,98 78,98zm23 -65c-16,0 -27,-15 -27,-38 0,-36 20,-79 52,-79 15,0 29,6 39,17l-1 7c-8,60 -37,93 -63,93zm440 2l-32 0c-15,0 -23,-4 -20,-26l19 -154 -73 0 -14 111c-4,33 -33,66 -53,66 -17,0 -21,-12 -15,-51l18 -126 -73 0 -21 148c-10,71 17,95 61,95 31,0 60,-20 78,-48l1 0c0,1 0,3 1,4 5,25 21,42 50,43l-8 59 57 0 24 -121zm99 -211c27,0 45,-18 45,-43 0,-24 -17,-42 -44,-42 -26,0 -45,18 -45,43 0,24 18,42 44,42zm-45 31l-30 238 73 0 30 -238 -73 0zm239 -30c36,0 74,-16 99,-60l-52 -20c-11,24 -27,37 -41,37 -13,0 -23,-11 -24,-34l-58 7c5,51 27,70 76,70zm-71 273c30,0 53,-16 71,-40l1 0 -3 35 72 0 29 -238 -73 0 -14 109c-4,35 -33,68 -53,68 -17,0 -21,-12 -16,-51l18 -126 -72 0 -21 148c-10,71 17,95 61,95zm-3978 214l-29 239 73 0 11 -93c7,-56 39,-85 55,-85 17,0 18,16 13,49l-17 129 73 0 12 -88c7,-60 39,-90 55,-90 15,0 18,16 13,49l-17 129 73 0 19 -143c8,-69 -8,-100 -56,-100 -33,0 -59,12 -80,36l-2 0c-7,-25 -24,-36 -52,-36 -28,0 -52,12 -72,35l-2 -1 3 -30 -73 0zm446 243c26,0 50,-14 68,-40l1 1 -4 35 74 0 29 -239 -74 0 -2 17 -1 0c-13,-13 -31,-21 -56,-21 -63,0 -113,65 -113,150 0,55 26,97 78,97zm23 -65c-17,0 -27,-15 -27,-38 0,-35 19,-79 51,-79 16,0 29,6 40,17l-1 7c-8,60 -38,93 -63,93zm434 -65l0 -1c24,-9 45,-26 45,-54 0,-41 -42,-62 -89,-62 -88,0 -135,68 -135,147 0,63 33,100 108,100 59,0 111,-27 111,-79 0,-23 -15,-43 -40,-51zm-73 -14l-34 8c9,-33 32,-53 55,-53 12,0 21,6 21,17 0,16 -21,24 -42,28zm5 86c-22,0 -38,-10 -42,-38l29 -5c27,-5 48,-3 48,18 0,20 -22,25 -35,25zm206 58c30,0 54,-15 71,-39l1 0 -3 35 72 0 29 -239 -73 0 -13 110c-5,35 -33,68 -54,68 -17,0 -21,-13 -15,-51l18 -127 -73 0 -21 149c-10,70 17,94 61,94zm268 0c46,0 79,-14 106,-44l-54 -39c-12,15 -29,24 -45,24 -8,0 -16,-3 -16,-11 0,-7 6,-13 25,-22l35 -19c31,-16 59,-35 59,-75 0,-42 -38,-61 -81,-61 -31,0 -69,13 -89,29l39 51c15,-13 29,-20 41,-20 10,0 17,2 17,10 0,10 -7,13 -26,23l-28 15c-42,21 -66,44 -66,81 1,37 30,58 83,58zm161 -243l-42 336 74 0 13 -108 2 -1c14,11 33,16 55,16 64,0 114,-65 114,-149 0,-55 -25,-98 -75,-98 -30,0 -54,16 -72,41l0 -1 4 -36 -73 0zm83 178c-13,0 -25,-4 -32,-14l0 -7c9,-62 39,-96 65,-96 17,0 27,17 27,40 0,39 -21,77 -60,77zm236 -208c27,0 45,-19 45,-44 0,-24 -17,-41 -44,-41 -26,0 -45,18 -45,43 0,24 18,42 44,42zm-45 30l-30 239 73 0 30 -239 -73 0zm207 243c92,0 133,-67 133,-145 0,-59 -38,-96 -88,-96 -32,0 -57,20 -71,39l-1 -1c11,-50 34,-75 75,-82 34,-5 63,-6 91,-26l-12 -60c-26,13 -60,17 -89,21 -96,16 -139,110 -139,224 0,74 34,126 101,126zm6 -65c-16,0 -33,-13 -33,-48 0,-33 21,-62 50,-62 13,0 35,6 35,42 0,37 -22,68 -52,68zm393 -178l-73 0 -11 92 -66 1 11 -93 -73 0 -30 239 74 0 10 -87 67 0 -11 87 73 0 29 -239zm93 243c30,0 53,-15 71,-39l1 0 -3 35 72 0 29 -239 -73 0 -13 110c-5,35 -33,68 -54,68 -17,0 -21,-13 -16,-51l18 -127 -72 0 -21 149c-10,70 17,94 61,94zm259 -128l-87 124 79 0 41 -60 1 0 25 60 78 0 -57 -120 86 -119 -83 0 -36 58 0 0 -22 -58 -81 0 56 115zm477 -115l-102 0c-63,1 -109,28 -109,88 0,18 9,41 30,54l0 1c-18,32 -29,38 -50,40l2 59c5,1 16,1 25,1 39,0 60,-25 81,-68l7 -14 24 0 -9 78 72 0 29 -239zm-86 113l-21 1c-18,0 -31,-7 -31,-24 0,-21 17,-30 38,-30l21 0 -7 53zm139 -113l-29 239 70 0 16 -126 1 0 25 84 47 0 46 -82 1 0 -16 124 70 0 30 -239 -75 0 -69 129 -1 0 -40 -129 -76 0z"/>
   <path id="1" class="fil1" d="M2013 913c34,0 61,-26 61,-61 0,-33 -25,-58 -59,-58 -35,0 -61,26 -61,60 0,34 25,59 59,59zm386 -96l124 -156 -93 0 -108 142 -1 0 17 -142 -78 0 -42 346 77 0 12 -97 33 -38 56 135 88 0 -85 -190zm206 195c91,0 133,-68 133,-145 0,-65 -41,-102 -102,-102 -84,0 -132,68 -132,144 0,66 40,103 101,103zm5 -66c-15,0 -32,-12 -32,-40 0,-37 20,-76 52,-76 13,0 33,7 33,41 0,39 -20,75 -53,75zm183 -177l-29 238 73 0 11 -88c7,-59 39,-89 61,-89 15,0 18,15 14,48l-17 129 72 0 19 -145c9,-67 -10,-97 -55,-97 -31,0 -57,13 -79,38l-1 -1 4 -33 -73 0zm316 243c27,0 51,-15 68,-40l2 0 -5 35 74 0 29 -238 -74 0 -1 17 -2 0c-13,-14 -31,-21 -56,-21 -62,0 -113,64 -113,149 0,55 27,98 78,98zm23 -65c-16,0 -27,-15 -27,-38 0,-36 19,-79 52,-79 15,0 28,6 39,17l-1 7c-8,60 -37,93 -63,93zm410 -178l-73 0 -11 92 -67 0 11 -92 -73 0 -29 238 73 0 11 -86 66 -1 -10 87 73 0 29 -238zm266 0l-73 0 -12 92 -66 0 11 -92 -73 0 -29 238 73 0 11 -86 66 -1 -11 87 74 0 29 -238zm246 0l-102 0c-63,0 -109,27 -109,87 0,18 9,42 30,55l0 1c-18,32 -29,38 -50,39l2 60c5,0 16,1 25,1 39,0 60,-25 81,-68l7 -14 24 0 -9 77 72 0 29 -238zm-86 113l-21 0c-18,0 -31,-6 -31,-24 0,-20 17,-30 38,-30l21 0 -7 54zm227 -113l-30 238 72 0 7 -63c11,-4 20,-10 30,-16l5 16c12,40 30,68 67,68 12,0 16,-1 22,-1l16 -60c-21,-1 -34,-7 -45,-41l-7 -21c33,-32 58,-72 68,-120l-76 0c-10,39 -28,74 -68,102l-1 0 13 -102 -73 0zm289 243c27,0 51,-15 69,-40l1 0 -4 35 73 0 30 -238 -74 0 -2 17 -1 0c-13,-14 -32,-21 -57,-21 -62,0 -112,64 -112,149 0,55 26,98 77,98zm24 -65c-17,0 -28,-15 -28,-38 0,-36 20,-79 52,-79 15,0 29,6 40,17l-1 7c-9,60 -38,93 -63,93zm410 -178l-74 0 -11 92 -66 0 11 -92 -73 0 -29 238 73 0 10 -86 67 -1 -11 87 73 0 30 -238zm102 243c27,0 51,-15 68,-40l2 0 -5 35 74 0 29 -238 -73 0 -2 17 -2 0c-13,-14 -31,-21 -56,-21 -62,0 -113,64 -113,149 0,55 27,98 78,98zm23 -65c-16,0 -27,-15 -27,-38 0,-36 20,-79 52,-79 15,0 29,6 39,17l-1 7c-8,60 -37,93 -63,93zm406 -178l-105 0c-47,0 -75,27 -84,71 -3,19 -7,36 -10,50 -8,35 -19,58 -37,58 -3,0 -8,-1 -13,-2l-11 60c9,3 22,5 32,5 44,0 76,-27 91,-84 7,-28 12,-53 18,-73 3,-16 10,-25 28,-25l11 0 -22 178 73 0 29 -238zm101 -31c27,0 46,-18 46,-43 0,-24 -18,-42 -44,-42 -27,0 -46,18 -46,43 0,24 18,42 44,42zm-45 31l-29 238 73 0 29 -238 -73 0zm178 243c63,0 108,-27 108,-79 0,-24 -14,-43 -39,-52l0 -1c24,-7 45,-26 45,-53 0,-42 -43,-62 -94,-62 -32,0 -70,11 -88,21l27 53c16,-8 37,-13 56,-13 16,0 27,4 27,16 0,11 -11,21 -38,22l-30 0 -6 47 38 -1c17,0 30,4 30,17 0,17 -17,24 -40,24 -20,0 -45,-5 -66,-22l-25 59c25,16 51,24 95,24zm214 0c27,0 51,-15 68,-40l2 0 -5 35 74 0 29 -238 -73 0 -2 17 -2 0c-12,-14 -31,-21 -56,-21 -62,0 -113,64 -113,149 0,55 27,98 78,98zm23 -65c-16,0 -27,-15 -27,-38 0,-36 20,-79 52,-79 15,0 29,6 39,17l-1 7c-8,60 -37,93 -63,93zm440 2l-32 0c-15,0 -23,-4 -20,-26l19 -154 -73 0 -14 111c-4,33 -33,66 -53,66 -17,0 -21,-12 -15,-51l18 -126 -73 0 -21 148c-10,71 17,95 61,95 31,0 60,-20 78,-48l1 0c0,1 0,3 1,4 5,25 21,42 50,43l-8 59 57 0 24 -121zm99 -211c27,0 45,-18 45,-43 0,-24 -17,-42 -44,-42 -26,0 -45,18 -45,43 0,24 18,42 44,42zm-45 31l-30 238 73 0 30 -238 -73 0zm239 -30c36,0 74,-16 99,-60l-52 -20c-11,24 -27,37 -41,37 -13,0 -23,-11 -24,-34l-58 7c5,51 27,70 76,70zm-71 273c30,0 53,-16 71,-40l1 0 -3 35 72 0 29 -238 -73 0 -14 109c-4,35 -33,68 -53,68 -17,0 -21,-12 -16,-51l18 -126 -72 0 -21 148c-10,71 17,95 61,95zm-3978 214l-29 239 73 0 11 -93c7,-56 39,-85 55,-85 17,0 18,16 13,49l-17 129 73 0 12 -88c7,-60 39,-90 55,-90 15,0 18,16 13,49l-17 129 73 0 19 -143c8,-69 -8,-100 -56,-100 -33,0 -59,12 -80,36l-2 0c-7,-25 -24,-36 -52,-36 -28,0 -52,12 -72,35l-2 -1 3 -30 -73 0zm446 243c26,0 50,-14 68,-40l1 1 -4 35 74 0 29 -239 -74 0 -2 17 -1 0c-13,-13 -31,-21 -56,-21 -63,0 -113,65 -113,150 0,55 26,97 78,97zm23 -65c-17,0 -27,-15 -27,-38 0,-35 19,-79 51,-79 16,0 29,6 40,17l-1 7c-8,60 -38,93 -63,93zm434 -65l0 -1c24,-9 45,-26 45,-54 0,-41 -42,-62 -89,-62 -88,0 -135,68 -135,147 0,63 33,100 108,100 59,0 111,-27 111,-79 0,-23 -15,-43 -40,-51zm-73 -14l-34 8c9,-33 32,-53 55,-53 12,0 21,6 21,17 0,16 -21,24 -42,28zm5 86c-22,0 -38,-10 -42,-38l29 -5c27,-5 48,-3 48,18 0,20 -22,25 -35,25zm206 58c30,0 54,-15 71,-39l1 0 -3 35 72 0 29 -239 -73 0 -13 110c-5,35 -33,68 -54,68 -17,0 -21,-13 -15,-51l18 -127 -73 0 -21 149c-10,70 17,94 61,94zm268 0c46,0 79,-14 106,-44l-54 -39c-12,15 -29,24 -45,24 -8,0 -16,-3 -16,-11 0,-7 6,-13 25,-22l35 -19c31,-16 59,-35 59,-75 0,-42 -38,-61 -81,-61 -31,0 -69,13 -89,29l39 51c15,-13 29,-20 41,-20 10,0 17,2 17,10 0,10 -7,13 -26,23l-28 15c-42,21 -66,44 -66,81 1,37 30,58 83,58zm161 -243l-42 336 74 0 13 -108 2 -1c14,11 33,16 55,16 64,0 114,-65 114,-149 0,-55 -25,-98 -75,-98 -30,0 -54,16 -72,41l0 -1 4 -36 -73 0zm83 178c-13,0 -25,-4 -32,-14l0 -7c9,-62 39,-96 65,-96 17,0 27,17 27,40 0,39 -21,77 -60,77zm236 -208c27,0 45,-19 45,-44 0,-24 -17,-41 -44,-41 -26,0 -45,18 -45,43 0,24 18,42 44,42zm-45 30l-30 239 73 0 30 -239 -73 0zm207 243c92,0 133,-67 133,-145 0,-59 -38,-96 -88,-96 -32,0 -57,20 -71,39l-1 -1c11,-50 34,-75 75,-82 34,-5 63,-6 91,-26l-12 -60c-26,13 -60,17 -89,21 -96,16 -139,110 -139,224 0,74 34,126 101,126zm6 -65c-16,0 -33,-13 -33,-48 0,-33 21,-62 50,-62 13,0 35,6 35,42 0,37 -22,68 -52,68zm393 -178l-73 0 -11 92 -66 1 11 -93 -73 0 -30 239 74 0 10 -87 67 0 -11 87 73 0 29 -239zm93 243c30,0 53,-15 71,-39l1 0 -3 35 72 0 29 -239 -73 0 -13 110c-5,35 -33,68 -54,68 -17,0 -21,-13 -16,-51l18 -127 -72 0 -21 149c-10,70 17,94 61,94zm259 -128l-87 124 79 0 41 -60 1 0 25 60 78 0 -57 -120 86 -119 -83 0 -36 58 0 0 -22 -58 -81 0 56 115zm477 -115l-102 0c-63,1 -109,28 -109,88 0,18 9,41 30,54l0 1c-18,32 -29,38 -50,40l2 59c5,1 16,1 25,1 39,0 60,-25 81,-68l7 -14 24 0 -9 78 72 0 29 -239zm-86 113l-21 1c-18,0 -31,-7 -31,-24 0,-21 17,-30 38,-30l21 0 -7 53zm139 -113l-29 239 70 0 16 -126 1 0 25 84 47 0 46 -82 1 0 -16 124 70 0 30 -239 -75 0 -69 129 -1 0 -40 -129 -76 0z"/>
  </g>
  <g>
   <path class="fil0 str0" d="M1551 1898c35,0 61,-26 61,-61 0,-33 -24,-58 -58,-58 -35,0 -62,26 -62,60 0,34 26,59 59,59zm248 -252l-43 347 118 0c95,0 134,-43 134,-113 0,-37 -19,-61 -49,-73l0 -1c35,-17 53,-55 53,-88 0,-48 -30,-72 -91,-72l-122 0zm89 140l-30 0 9 -71 34 0c22,0 32,7 32,25 0,27 -18,46 -45,46zm-10 139l-37 0 10 -79 41 0c25,0 37,11 37,29 0,29 -15,50 -51,50zm229 72c30,0 53,-16 71,-39l1 0 -3 35 71 0 30 -239 -74 0 -13 109c-4,35 -33,69 -53,69 -18,0 -21,-13 -16,-52l18 -126 -73 0 -20 148c-10,71 16,95 61,95zm267 0c47,0 80,-14 106,-44l-53 -39c-13,14 -30,24 -46,24 -8,0 -15,-3 -15,-11 0,-8 5,-13 24,-23l36 -18c31,-16 59,-36 59,-76 0,-42 -38,-60 -81,-60 -31,0 -70,13 -89,29l38 50c15,-12 30,-19 42,-19 10,0 16,2 16,9 0,10 -6,14 -26,24l-28 15c-41,20 -66,43 -66,80 1,38 30,59 83,59zm234 0c91,0 133,-68 133,-145 0,-65 -41,-102 -102,-102 -84,0 -132,68 -132,145 0,65 41,102 101,102zm5 -65c-15,0 -32,-13 -32,-41 0,-37 20,-76 52,-76 13,0 34,7 34,42 0,39 -21,75 -54,75zm183 -178l-29 239 73 0 11 -94c7,-55 39,-84 55,-84 17,0 18,15 13,48l-17 130 73 0 12 -88c7,-61 39,-90 55,-90 15,0 18,15 13,48l-17 130 73 0 19 -143c9,-69 -8,-100 -56,-100 -33,0 -59,12 -80,36l-2 0c-7,-25 -24,-36 -52,-36 -28,0 -52,12 -72,34l-2 0 4 -30 -74 0zm470 243c91,0 132,-68 132,-145 0,-65 -40,-102 -102,-102 -84,0 -131,68 -131,145 0,65 40,102 101,102zm5 -65c-16,0 -32,-13 -32,-41 0,-37 19,-76 51,-76 14,0 34,7 34,42 0,39 -21,75 -53,75zm332 -66l0 -1c24,-8 45,-25 45,-53 0,-42 -42,-62 -89,-62 -88,0 -134,68 -134,147 0,63 33,100 107,100 60,0 111,-27 111,-79 0,-23 -14,-43 -40,-52zm-73 -13l-34 7c9,-32 33,-53 55,-53 13,0 21,7 21,18 0,15 -21,23 -42,28zm6 85c-23,0 -39,-9 -42,-38l29 -4c27,-5 48,-3 48,18 0,20 -22,24 -35,24zm375 -184l-105 0c-48,0 -76,27 -84,71 -4,19 -8,36 -11,50 -7,35 -19,58 -37,58 -3,0 -7,0 -12,-2l-12 60c10,4 22,5 33,5 44,0 76,-27 90,-84 8,-28 13,-53 18,-73 4,-16 11,-24 29,-24l11 0 -22 178 73 0 29 -239zm238 62c0,-45 -43,-66 -82,-66 -80,0 -130,66 -130,147 -1,62 39,100 99,100 47,0 79,-18 104,-52l-54 -32c-14,17 -28,24 -44,24 -14,0 -30,-9 -34,-31 70,-7 140,-30 141,-90zm-70 10c-1,23 -33,32 -69,36 9,-33 30,-51 51,-51 11,0 18,5 18,15zm330 -72l-73 0 -11 92 -66 1 11 -93 -73 0 -30 239 74 0 10 -87 67 0 -11 87 73 0 29 -239zm266 0l-73 0 -11 92 -66 1 11 -93 -73 0 -30 239 73 0 11 -87 67 0 -11 87 73 0 29 -239zm247 0l-103 0c-63,1 -108,27 -108,87 0,18 8,42 30,55l-1 1c-18,32 -28,38 -49,40l1 59c5,1 16,1 25,1 39,0 60,-25 82,-68l6 -14 25 0 -10 78 72 0 30 -239zm-86 113l-21 0c-18,0 -31,-6 -31,-24 0,-20 16,-29 37,-29l21 0 -6 53zm305 130c91,0 132,-68 132,-145 0,-59 -37,-96 -88,-96 -31,0 -56,20 -71,39l-1 -1c12,-51 35,-76 76,-82 34,-5 63,-6 91,-26l-13 -61c-25,14 -60,17 -88,22 -96,16 -139,110 -139,223 0,75 33,127 101,127zm6 -65c-17,0 -34,-14 -34,-48 0,-33 21,-62 51,-62 13,0 35,6 35,41 0,37 -22,69 -52,69zm365 -116c0,-45 -43,-66 -82,-66 -80,0 -130,66 -130,147 -1,62 39,100 99,100 47,0 79,-18 104,-52l-55 -32c-13,17 -27,24 -43,24 -14,0 -30,-9 -34,-31 70,-7 140,-30 141,-90zm-70 10c-1,23 -33,32 -69,36 9,-33 30,-51 51,-51 11,0 18,5 18,15zm118 -72l-29 239 73 0 11 -94c7,-55 39,-84 55,-84 16,0 17,15 13,48l-17 130 73 0 11 -88c8,-61 39,-90 56,-90 15,0 18,15 13,48l-17 130 73 0 19 -143c8,-69 -9,-100 -56,-100 -33,0 -59,12 -80,36l-2 0c-7,-25 -25,-36 -52,-36 -28,0 -53,12 -73,34l-2 0 4 -30 -73 0zm469 243c92,0 133,-68 133,-145 0,-65 -41,-102 -102,-102 -84,0 -132,68 -132,145 0,65 41,102 101,102zm6 -65c-16,0 -33,-13 -33,-41 0,-37 20,-76 52,-76 13,0 34,7 34,42 0,39 -21,75 -53,75zm395 -178l-73 0 -12 92 -66 1 11 -93 -73 0 -29 239 73 0 11 -87 66 0 -11 87 74 0 29 -239zm266 0l-74 0 -11 92 -66 1 11 -93 -73 0 -29 239 73 0 11 -87 66 0 -11 87 73 0 30 -239zm93 243c29,0 53,-16 70,-39l1 0 -3 35 72 0 29 -239 -73 0 -13 109c-4,35 -33,69 -54,69 -17,0 -21,-13 -15,-52l18 -126 -73 0 -20 148c-11,71 16,95 61,95zm258 -128l-87 124 79 0 41 -60 1 0 25 60 78 0 -57 -120 86 -119 -83 0 -35 58 -1 0 -22 -58 -81 0 56 115zm-5212 350l-29 239 72 0 7 -64c10,-4 20,-9 29,-15l5 15c13,40 31,68 68,68 11,0 16,0 22,-1l16 -59c-21,-2 -34,-8 -45,-42l-7 -21c33,-32 58,-72 67,-120l-75 0c-10,39 -29,74 -68,103l-1 -1 13 -102 -74 0zm297 -31c27,0 45,-18 45,-43 0,-24 -17,-41 -44,-41 -26,0 -45,18 -45,42 0,24 18,42 44,42zm-45 31l-30 239 73 0 30 -239 -73 0zm337 0l-105 0c-48,0 -75,27 -84,71 -4,19 -7,36 -10,50 -8,35 -19,58 -37,58 -3,0 -8,0 -13,-2l-11 60c9,4 22,5 32,5 44,0 76,-27 91,-84 7,-28 12,-52 18,-73 3,-16 10,-24 28,-24l11 0 -22 178 73 0 29 -239zm238 62c1,-45 -43,-66 -81,-66 -81,0 -131,66 -131,147 -1,62 39,100 99,100 47,0 79,-17 104,-52l-54 -32c-13,17 -28,24 -44,24 -14,0 -29,-9 -34,-31 70,-7 140,-30 141,-90zm-70 10c-1,23 -33,33 -68,36 8,-33 29,-51 50,-51 12,0 18,5 18,15zm360 109l-32 0c-14,-1 -22,-5 -19,-27l19 -154 -73 0 -14 111c-5,33 -33,67 -54,67 -16,0 -21,-13 -15,-51l18 -127 -72 0 -21 148c-10,71 16,95 61,95 31,0 59,-19 77,-48l1 0c0,1 1,3 1,5 6,25 21,41 50,42l-7 59 56 0 24 -120zm115 63c74,0 118,-47 120,-118 0,-48 -30,-78 -67,-78 -28,0 -51,14 -62,31l-1 0 12 -79 -72 0 -20 136c-10,71 17,108 90,108zm5 -61c-21,0 -28,-16 -26,-35 3,-22 20,-40 41,-40 10,0 26,6 26,27 0,24 -16,48 -41,48zm253 -183l-42 335 73 0 13 -108 2 0c15,11 34,16 56,16 64,0 114,-65 114,-150 0,-54 -26,-97 -75,-97 -31,0 -55,15 -72,41l-1 -1 5 -36 -73 0zm82 178c-12,0 -24,-5 -32,-14l1 -7c9,-62 38,-96 65,-96 17,0 27,17 27,40 0,39 -21,77 -61,77zm237 -209c26,0 45,-18 45,-43 0,-24 -18,-41 -44,-41 -27,0 -45,18 -45,42 0,24 18,42 44,42zm-46 31l-29 239 73 0 29 -239 -73 0zm179 243c63,0 108,-27 108,-78 0,-24 -15,-44 -40,-52l0 -1c24,-8 45,-27 45,-54 0,-42 -43,-62 -94,-62 -32,0 -70,11 -88,21l27 53c17,-7 38,-13 56,-13 16,0 27,5 27,16 0,11 -11,22 -37,22l-31 1 -6 46 38 0c17,0 30,3 30,17 0,16 -17,24 -40,24 -19,0 -45,-6 -66,-22l-25 59c25,15 52,23 96,23zm378 -243l-73 0 -11 92 -66 1 11 -93 -73 0 -30 239 73 0 11 -87 67 0 -11 87 73 0 29 -239zm127 243c91,0 132,-68 132,-145 0,-65 -40,-102 -102,-102 -84,0 -131,68 -131,145 0,65 40,102 101,102zm5 -65c-16,0 -32,-13 -32,-41 0,-37 19,-76 51,-76 14,0 34,7 34,42 0,39 -21,75 -53,75zm227 65c46,0 79,-14 106,-44l-54 -39c-12,14 -29,24 -45,24 -8,0 -16,-3 -16,-11 0,-7 6,-13 25,-23l35 -18c31,-16 59,-36 59,-76 0,-42 -38,-60 -81,-60 -31,0 -69,13 -89,29l39 50c14,-12 29,-19 41,-19 10,0 17,2 17,10 0,9 -7,13 -27,23l-27 15c-42,21 -67,43 -66,81 0,37 30,58 83,58zm233 0c92,0 133,-68 133,-145 0,-65 -40,-102 -102,-102 -84,0 -132,68 -132,145 0,65 41,102 101,102zm6 -65c-16,0 -32,-13 -32,-41 0,-37 19,-76 51,-76 13,0 34,7 34,42 0,39 -21,75 -53,75zm343 65c91,0 134,-83 136,-196 1,-80 -25,-171 -160,-172l-14 61c15,1 32,2 46,7 36,10 50,30 54,76l-1 1c-15,-13 -32,-17 -51,-17 -60,0 -112,58 -112,135 0,64 38,105 102,105zm4 -65c-15,0 -33,-11 -33,-43 0,-35 22,-70 55,-70 11,0 24,3 35,13 -5,57 -27,100 -57,100zm229 -209c27,0 45,-18 45,-43 0,-24 -17,-41 -44,-41 -27,0 -45,18 -45,42 0,24 18,42 44,42zm-46 31l-29 239 73 0 30 -239 -74 0zm179 243c26,0 50,-15 68,-40l1 1 -4 35 74 0 29 -239 -74 0 -2 17 -1 0c-13,-13 -32,-21 -56,-21 -63,0 -113,65 -113,150 0,55 26,97 78,97zm23 -65c-17,0 -27,-15 -27,-38 0,-35 19,-79 51,-79 15,0 29,6 40,17l-1 7c-8,60 -38,93 -63,93zm196 -178l-29 239 70 0 16 -126 1 0 25 84 47 0 46 -83 1 0 -16 125 71 0 29 -239 -75 0 -69 129 -1 0 -40 -129 -76 0zm499 62c0,-45 -43,-66 -82,-66 -80,0 -131,66 -131,147 0,62 40,100 100,100 47,0 78,-17 104,-52l-55 -32c-13,17 -27,24 -43,24 -14,0 -30,-9 -34,-31 70,-7 140,-30 141,-90zm-71 10c0,23 -32,33 -68,36 8,-33 30,-51 51,-51 11,0 18,5 17,15zm119 -72l-29 239 73 0 11 -93c7,-56 39,-85 55,-85 16,0 17,15 13,48l-17 130 72 0 12 -88c8,-61 39,-90 56,-90 15,0 17,15 13,48l-17 130 72 0 19 -143c9,-69 -8,-100 -55,-100 -33,0 -60,12 -80,36l-3 0c-6,-25 -24,-36 -51,-36 -28,0 -53,12 -73,34l-2 0 4 -30 -73 0zm396 0l-41 335 73 0 13 -108 2 0c15,11 33,16 56,16 64,0 114,-65 114,-150 0,-54 -26,-97 -76,-97 -30,0 -54,15 -71,41l-1 -1 5 -36 -74 0zm83 178c-12,0 -25,-5 -32,-14l1 -7c8,-62 38,-96 65,-96 17,0 27,17 27,40 0,39 -21,77 -61,77zm397 -178l-73 0 -13 109c-4,34 -33,69 -54,69 -17,0 -21,-13 -15,-51l17 -127 -73 0 -20 148c-10,71 16,95 61,95 30,0 53,-15 71,-39l1 1 0 0c-9,63 -33,75 -66,75 -19,0 -39,-6 -59,-19l-23 55c28,17 57,24 86,24 61,0 122,-26 135,-133l25 -207z"/>
   <path id="1" class="fil1" d="M1551 1898c35,0 61,-26 61,-61 0,-33 -24,-58 -58,-58 -35,0 -62,26 -62,60 0,34 26,59 59,59zm248 -252l-43 347 118 0c95,0 134,-43 134,-113 0,-37 -19,-61 -49,-73l0 -1c35,-17 53,-55 53,-88 0,-48 -30,-72 -91,-72l-122 0zm89 140l-30 0 9 -71 34 0c22,0 32,7 32,25 0,27 -18,46 -45,46zm-10 139l-37 0 10 -79 41 0c25,0 37,11 37,29 0,29 -15,50 -51,50zm229 72c30,0 53,-16 71,-39l1 0 -3 35 71 0 30 -239 -74 0 -13 109c-4,35 -33,69 -53,69 -18,0 -21,-13 -16,-52l18 -126 -73 0 -20 148c-10,71 16,95 61,95zm267 0c47,0 80,-14 106,-44l-53 -39c-13,14 -30,24 -46,24 -8,0 -15,-3 -15,-11 0,-8 5,-13 24,-23l36 -18c31,-16 59,-36 59,-76 0,-42 -38,-60 -81,-60 -31,0 -70,13 -89,29l38 50c15,-12 30,-19 42,-19 10,0 16,2 16,9 0,10 -6,14 -26,24l-28 15c-41,20 -66,43 -66,80 1,38 30,59 83,59zm234 0c91,0 133,-68 133,-145 0,-65 -41,-102 -102,-102 -84,0 -132,68 -132,145 0,65 41,102 101,102zm5 -65c-15,0 -32,-13 -32,-41 0,-37 20,-76 52,-76 13,0 34,7 34,42 0,39 -21,75 -54,75zm183 -178l-29 239 73 0 11 -94c7,-55 39,-84 55,-84 17,0 18,15 13,48l-17 130 73 0 12 -88c7,-61 39,-90 55,-90 15,0 18,15 13,48l-17 130 73 0 19 -143c9,-69 -8,-100 -56,-100 -33,0 -59,12 -80,36l-2 0c-7,-25 -24,-36 -52,-36 -28,0 -52,12 -72,34l-2 0 4 -30 -74 0zm470 243c91,0 132,-68 132,-145 0,-65 -40,-102 -102,-102 -84,0 -131,68 -131,145 0,65 40,102 101,102zm5 -65c-16,0 -32,-13 -32,-41 0,-37 19,-76 51,-76 14,0 34,7 34,42 0,39 -21,75 -53,75zm332 -66l0 -1c24,-8 45,-25 45,-53 0,-42 -42,-62 -89,-62 -88,0 -134,68 -134,147 0,63 33,100 107,100 60,0 111,-27 111,-79 0,-23 -14,-43 -40,-52zm-73 -13l-34 7c9,-32 33,-53 55,-53 13,0 21,7 21,18 0,15 -21,23 -42,28zm6 85c-23,0 -39,-9 -42,-38l29 -4c27,-5 48,-3 48,18 0,20 -22,24 -35,24zm375 -184l-105 0c-48,0 -76,27 -84,71 -4,19 -8,36 -11,50 -7,35 -19,58 -37,58 -3,0 -7,0 -12,-2l-12 60c10,4 22,5 33,5 44,0 76,-27 90,-84 8,-28 13,-53 18,-73 4,-16 11,-24 29,-24l11 0 -22 178 73 0 29 -239zm238 62c0,-45 -43,-66 -82,-66 -80,0 -130,66 -130,147 -1,62 39,100 99,100 47,0 79,-18 104,-52l-54 -32c-14,17 -28,24 -44,24 -14,0 -30,-9 -34,-31 70,-7 140,-30 141,-90zm-70 10c-1,23 -33,32 -69,36 9,-33 30,-51 51,-51 11,0 18,5 18,15zm330 -72l-73 0 -11 92 -66 1 11 -93 -73 0 -30 239 74 0 10 -87 67 0 -11 87 73 0 29 -239zm266 0l-73 0 -11 92 -66 1 11 -93 -73 0 -30 239 73 0 11 -87 67 0 -11 87 73 0 29 -239zm247 0l-103 0c-63,1 -108,27 -108,87 0,18 8,42 30,55l-1 1c-18,32 -28,38 -49,40l1 59c5,1 16,1 25,1 39,0 60,-25 82,-68l6 -14 25 0 -10 78 72 0 30 -239zm-86 113l-21 0c-18,0 -31,-6 -31,-24 0,-20 16,-29 37,-29l21 0 -6 53zm305 130c91,0 132,-68 132,-145 0,-59 -37,-96 -88,-96 -31,0 -56,20 -71,39l-1 -1c12,-51 35,-76 76,-82 34,-5 63,-6 91,-26l-13 -61c-25,14 -60,17 -88,22 -96,16 -139,110 -139,223 0,75 33,127 101,127zm6 -65c-17,0 -34,-14 -34,-48 0,-33 21,-62 51,-62 13,0 35,6 35,41 0,37 -22,69 -52,69zm365 -116c0,-45 -43,-66 -82,-66 -80,0 -130,66 -130,147 -1,62 39,100 99,100 47,0 79,-18 104,-52l-55 -32c-13,17 -27,24 -43,24 -14,0 -30,-9 -34,-31 70,-7 140,-30 141,-90zm-70 10c-1,23 -33,32 -69,36 9,-33 30,-51 51,-51 11,0 18,5 18,15zm118 -72l-29 239 73 0 11 -94c7,-55 39,-84 55,-84 16,0 17,15 13,48l-17 130 73 0 11 -88c8,-61 39,-90 56,-90 15,0 18,15 13,48l-17 130 73 0 19 -143c8,-69 -9,-100 -56,-100 -33,0 -59,12 -80,36l-2 0c-7,-25 -25,-36 -52,-36 -28,0 -53,12 -73,34l-2 0 4 -30 -73 0zm469 243c92,0 133,-68 133,-145 0,-65 -41,-102 -102,-102 -84,0 -132,68 -132,145 0,65 41,102 101,102zm6 -65c-16,0 -33,-13 -33,-41 0,-37 20,-76 52,-76 13,0 34,7 34,42 0,39 -21,75 -53,75zm395 -178l-73 0 -12 92 -66 1 11 -93 -73 0 -29 239 73 0 11 -87 66 0 -11 87 74 0 29 -239zm266 0l-74 0 -11 92 -66 1 11 -93 -73 0 -29 239 73 0 11 -87 66 0 -11 87 73 0 30 -239zm93 243c29,0 53,-16 70,-39l1 0 -3 35 72 0 29 -239 -73 0 -13 109c-4,35 -33,69 -54,69 -17,0 -21,-13 -15,-52l18 -126 -73 0 -20 148c-11,71 16,95 61,95zm258 -128l-87 124 79 0 41 -60 1 0 25 60 78 0 -57 -120 86 -119 -83 0 -35 58 -1 0 -22 -58 -81 0 56 115zm-5212 350l-29 239 72 0 7 -64c10,-4 20,-9 29,-15l5 15c13,40 31,68 68,68 11,0 16,0 22,-1l16 -59c-21,-2 -34,-8 -45,-42l-7 -21c33,-32 58,-72 67,-120l-75 0c-10,39 -29,74 -68,103l-1 -1 13 -102 -74 0zm297 -31c27,0 45,-18 45,-43 0,-24 -17,-41 -44,-41 -26,0 -45,18 -45,42 0,24 18,42 44,42zm-45 31l-30 239 73 0 30 -239 -73 0zm337 0l-105 0c-48,0 -75,27 -84,71 -4,19 -7,36 -10,50 -8,35 -19,58 -37,58 -3,0 -8,0 -13,-2l-11 60c9,4 22,5 32,5 44,0 76,-27 91,-84 7,-28 12,-52 18,-73 3,-16 10,-24 28,-24l11 0 -22 178 73 0 29 -239zm238 62c1,-45 -43,-66 -81,-66 -81,0 -131,66 -131,147 -1,62 39,100 99,100 47,0 79,-17 104,-52l-54 -32c-13,17 -28,24 -44,24 -14,0 -29,-9 -34,-31 70,-7 140,-30 141,-90zm-70 10c-1,23 -33,33 -68,36 8,-33 29,-51 50,-51 12,0 18,5 18,15zm360 109l-32 0c-14,-1 -22,-5 -19,-27l19 -154 -73 0 -14 111c-5,33 -33,67 -54,67 -16,0 -21,-13 -15,-51l18 -127 -72 0 -21 148c-10,71 16,95 61,95 31,0 59,-19 77,-48l1 0c0,1 1,3 1,5 6,25 21,41 50,42l-7 59 56 0 24 -120zm115 63c74,0 118,-47 120,-118 0,-48 -30,-78 -67,-78 -28,0 -51,14 -62,31l-1 0 12 -79 -72 0 -20 136c-10,71 17,108 90,108zm5 -61c-21,0 -28,-16 -26,-35 3,-22 20,-40 41,-40 10,0 26,6 26,27 0,24 -16,48 -41,48zm253 -183l-42 335 73 0 13 -108 2 0c15,11 34,16 56,16 64,0 114,-65 114,-150 0,-54 -26,-97 -75,-97 -31,0 -55,15 -72,41l-1 -1 5 -36 -73 0zm82 178c-12,0 -24,-5 -32,-14l1 -7c9,-62 38,-96 65,-96 17,0 27,17 27,40 0,39 -21,77 -61,77zm237 -209c26,0 45,-18 45,-43 0,-24 -18,-41 -44,-41 -27,0 -45,18 -45,42 0,24 18,42 44,42zm-46 31l-29 239 73 0 29 -239 -73 0zm179 243c63,0 108,-27 108,-78 0,-24 -15,-44 -40,-52l0 -1c24,-8 45,-27 45,-54 0,-42 -43,-62 -94,-62 -32,0 -70,11 -88,21l27 53c17,-7 38,-13 56,-13 16,0 27,5 27,16 0,11 -11,22 -37,22l-31 1 -6 46 38 0c17,0 30,3 30,17 0,16 -17,24 -40,24 -19,0 -45,-6 -66,-22l-25 59c25,15 52,23 96,23zm378 -243l-73 0 -11 92 -66 1 11 -93 -73 0 -30 239 73 0 11 -87 67 0 -11 87 73 0 29 -239zm127 243c91,0 132,-68 132,-145 0,-65 -40,-102 -102,-102 -84,0 -131,68 -131,145 0,65 40,102 101,102zm5 -65c-16,0 -32,-13 -32,-41 0,-37 19,-76 51,-76 14,0 34,7 34,42 0,39 -21,75 -53,75zm227 65c46,0 79,-14 106,-44l-54 -39c-12,14 -29,24 -45,24 -8,0 -16,-3 -16,-11 0,-7 6,-13 25,-23l35 -18c31,-16 59,-36 59,-76 0,-42 -38,-60 -81,-60 -31,0 -69,13 -89,29l39 50c14,-12 29,-19 41,-19 10,0 17,2 17,10 0,9 -7,13 -27,23l-27 15c-42,21 -67,43 -66,81 0,37 30,58 83,58zm233 0c92,0 133,-68 133,-145 0,-65 -40,-102 -102,-102 -84,0 -132,68 -132,145 0,65 41,102 101,102zm6 -65c-16,0 -32,-13 -32,-41 0,-37 19,-76 51,-76 13,0 34,7 34,42 0,39 -21,75 -53,75zm343 65c91,0 134,-83 136,-196 1,-80 -25,-171 -160,-172l-14 61c15,1 32,2 46,7 36,10 50,30 54,76l-1 1c-15,-13 -32,-17 -51,-17 -60,0 -112,58 -112,135 0,64 38,105 102,105zm4 -65c-15,0 -33,-11 -33,-43 0,-35 22,-70 55,-70 11,0 24,3 35,13 -5,57 -27,100 -57,100zm229 -209c27,0 45,-18 45,-43 0,-24 -17,-41 -44,-41 -27,0 -45,18 -45,42 0,24 18,42 44,42zm-46 31l-29 239 73 0 30 -239 -74 0zm179 243c26,0 50,-15 68,-40l1 1 -4 35 74 0 29 -239 -74 0 -2 17 -1 0c-13,-13 -32,-21 -56,-21 -63,0 -113,65 -113,150 0,55 26,97 78,97zm23 -65c-17,0 -27,-15 -27,-38 0,-35 19,-79 51,-79 15,0 29,6 40,17l-1 7c-8,60 -38,93 -63,93zm196 -178l-29 239 70 0 16 -126 1 0 25 84 47 0 46 -83 1 0 -16 125 71 0 29 -239 -75 0 -69 129 -1 0 -40 -129 -76 0zm499 62c0,-45 -43,-66 -82,-66 -80,0 -131,66 -131,147 0,62 40,100 100,100 47,0 78,-17 104,-52l-55 -32c-13,17 -27,24 -43,24 -14,0 -30,-9 -34,-31 70,-7 140,-30 141,-90zm-71 10c0,23 -32,33 -68,36 8,-33 30,-51 51,-51 11,0 18,5 17,15zm119 -72l-29 239 73 0 11 -93c7,-56 39,-85 55,-85 16,0 17,15 13,48l-17 130 72 0 12 -88c8,-61 39,-90 56,-90 15,0 17,15 13,48l-17 130 72 0 19 -143c9,-69 -8,-100 -55,-100 -33,0 -60,12 -80,36l-3 0c-6,-25 -24,-36 -51,-36 -28,0 -53,12 -73,34l-2 0 4 -30 -73 0zm396 0l-41 335 73 0 13 -108 2 0c15,11 33,16 56,16 64,0 114,-65 114,-150 0,-54 -26,-97 -76,-97 -30,0 -54,15 -71,41l-1 -1 5 -36 -74 0zm83 178c-12,0 -25,-5 -32,-14l1 -7c8,-62 38,-96 65,-96 17,0 27,17 27,40 0,39 -21,77 -61,77zm397 -178l-73 0 -13 109c-4,34 -33,69 -54,69 -17,0 -21,-13 -15,-51l17 -127 -73 0 -20 148c-10,71 16,95 61,95 30,0 53,-15 71,-39l1 1 0 0c-9,63 -33,75 -66,75 -19,0 -39,-6 -59,-19l-23 55c28,17 57,24 86,24 61,0 122,-26 135,-133l25 -207z"/>
  </g>
 </g>
</svg>
