<?xml version="1.0" encoding="UTF-8"?>
<!DOCTYPE svg PUBLIC "-//W3C//DTD SVG 1.1//EN" "http://www.w3.org/Graphics/SVG/1.1/DTD/svg11.dtd">
<!-- Creator: CorelDRAW X7 -->
<svg xmlns="http://www.w3.org/2000/svg" xml:space="preserve" width="64.4054mm" height="12.7647mm" version="1.1" style="shape-rendering:geometricPrecision; text-rendering:geometricPrecision; image-rendering:optimizeQuality; fill-rule:evenodd; clip-rule:evenodd"
viewBox="0 0 9608 1904"
 xmlns:xlink="http://www.w3.org/1999/xlink">
 <defs>
  <style type="text/css">
   <![CDATA[
    .fil0 {fill:#2B2A29;fill-rule:nonzero}
   ]]>
  </style>
 </defs>
 <g id="Слой_x0020_1">
  <metadata id="CorelCorpID_0Corel-Layer"/>
  <path class="fil0" d="M144 552c0,16 12,28 28,28l55 0c16,0 28,-12 28,-28l0 -121 121 0c16,0 28,-13 28,-29l0 -54c0,-17 -12,-29 -28,-29l-121 0 0 -115c0,-16 -12,-28 -28,-28l-55 0c-16,0 -28,12 -28,28l0 115 -116 0c-16,0 -28,12 -28,29l0 54c0,16 12,29 28,29l116 0 0 121zm633 -422c81,0 117,19 117,71 0,52 -36,71 -117,71l-68 0c-22,0 -41,21 -41,43l0 38c0,25 20,44 43,44l83 0c73,0 110,17 110,70 0,54 -37,71 -110,71l-66 0c-57,0 -97,-20 -113,-54 -18,-38 -40,-51 -66,-51l-55 0c-12,0 -47,9 -47,51 0,116 137,185 265,185l98 0c167,0 268,-53 268,-202 0,-56 -20,-100 -73,-133 43,-33 63,-82 63,-132 0,-157 -124,-202 -278,-202l-63 0c-128,0 -265,69 -265,179 0,43 35,51 47,51l55 0c26,0 47,-12 62,-43 21,-42 61,-57 117,-57l34 0zm641 408c-73,0 -110,-17 -110,-72 0,-56 37,-73 110,-73l90 0c73,0 110,17 110,73 0,55 -37,72 -110,72l-90 0zm68 -408c72,0 109,17 109,68 0,51 -37,68 -109,68l-48 0c-72,0 -109,-17 -109,-68 0,-51 37,-68 109,-68l48 0zm-67 -130c-137,0 -258,51 -258,192 0,47 16,84 62,122 -62,33 -89,90 -89,153 0,135 115,202 264,202l130 0c148,0 264,-67 264,-202 0,-63 -27,-120 -89,-153 46,-38 62,-75 62,-122 0,-141 -122,-192 -259,-192l-87 0zm1107 130c97,0 174,48 174,204 0,156 -77,204 -174,204 -97,0 -174,-48 -174,-204 0,-156 77,-204 174,-204zm-16 -130c-183,0 -331,80 -331,334 0,254 148,335 331,335l32 0c183,0 332,-81 332,-335 0,-254 -149,-334 -332,-334l-32 0zm781 669c167,0 267,-55 267,-210 0,-155 -100,-210 -267,-210l-154 0 0 -116 345 0c25,0 43,-19 43,-43l0 -44c0,-24 -18,-43 -43,-43l-475 0c-25,0 -44,19 -44,43l0 291c0,24 20,43 44,43l268 0c73,0 110,19 110,79 0,59 -37,79 -110,79l-73 0c-47,0 -84,-15 -98,-40 -17,-31 -36,-44 -62,-44l-55 0c-12,0 -47,9 -47,51 0,94 108,164 246,164l105 0zm653 -539c97,0 174,48 174,204 0,156 -77,204 -174,204 -98,0 -174,-48 -174,-204 0,-156 76,-204 174,-204zm-16 -130c-184,0 -332,80 -332,334 0,254 148,335 332,335l32 0c183,0 331,-81 331,-335 0,-254 -148,-334 -331,-334l-32 0zm912 3c-24,0 -50,6 -68,22l-112 97c-13,10 -24,23 -10,42l35 44c10,11 28,16 41,7l53 -39 0 446c0,24 19,43 43,43l86 0c25,0 44,-20 44,-44l0 -575c0,-24 -19,-43 -44,-43l-68 0zm568 666c167,0 267,-55 267,-210 0,-155 -100,-210 -267,-210l-154 0 0 -116 344 0c25,0 44,-19 44,-43l0 -44c0,-24 -19,-43 -44,-43l-475 0c-24,0 -43,19 -43,43l0 291c0,24 20,43 43,43l268 0c73,0 110,19 110,79 0,59 -37,79 -110,79l-72 0c-47,0 -84,-15 -98,-40 -17,-31 -36,-44 -63,-44l-55 0c-12,0 -47,9 -47,51 0,94 109,164 247,164l105 0zm398 -43c-9,18 1,39 27,39l94 0c26,0 48,-21 60,-44l242 -448c12,-23 28,-55 28,-84l0 -43c0,-23 -19,-43 -44,-43l-494 0c-24,0 -44,20 -44,43l0 44c0,24 20,43 44,43l353 0 -266 493zm801 -121c0,24 20,44 44,44l376 0 0 73c0,24 20,43 44,43l86 0c24,0 44,-20 44,-44l0 -72 51 0c24,0 44,-20 44,-44l0 -43c0,-25 -20,-44 -44,-44l-51 0 0 -372c0,-24 -20,-43 -44,-43l-145 0c-31,0 -54,8 -72,28l-305 348c-18,20 -28,40 -28,71l0 55zm420 -87l-235 0 235 -267 0 267zm658 251c168,0 268,-55 268,-210 0,-155 -100,-210 -268,-210l-154 0 0 -116 345 0c25,0 44,-19 44,-43l0 -44c0,-24 -19,-43 -44,-43l-475 0c-24,0 -43,19 -43,43l0 291c0,24 20,43 43,43l268 0c73,0 110,19 110,79 0,59 -37,79 -110,79l-72 0c-48,0 -84,-15 -99,-40 -17,-31 -35,-44 -62,-44l-55 0c-12,0 -47,9 -47,51 0,94 109,164 247,164l104 0zm1002 -539c98,0 174,48 174,204 0,156 -76,204 -174,204 -97,0 -173,-48 -173,-204 0,-156 76,-204 173,-204zm-16 -130c-183,0 -331,80 -331,334 0,254 148,335 331,335l32 0c184,0 332,-81 332,-335 0,-254 -148,-334 -332,-334l-32 0zm486 626c-10,18 1,39 26,39l95 0c26,0 48,-21 60,-44l242 -448c12,-23 28,-55 28,-84l0 -43c0,-23 -20,-43 -44,-43l-494 0c-25,0 -45,20 -45,43l0 44c0,24 20,43 45,43l353 0 -266 493z"/>
  <path class="fil0" d="M334 1787c0,16 13,29 29,29l54 0c16,0 29,-13 29,-29l0 -121 121 0c16,0 28,-12 28,-28l0 -55c0,-16 -12,-28 -28,-28l-121 0 0 -115c0,-16 -13,-29 -29,-29l-54 0c-16,0 -29,13 -29,29l0 115 -115 0c-16,0 -28,12 -28,28l0 55c0,16 12,28 28,28l115 0 0 121zm634 -421c81,0 117,19 117,71 0,52 -36,71 -117,71l-68 0c-23,0 -42,20 -42,43l0 38c0,24 20,43 44,43l83 0c73,0 110,17 110,71 0,54 -37,71 -110,71l-66 0c-57,0 -97,-20 -113,-54 -18,-39 -40,-51 -67,-51l-54 0c-13,0 -48,9 -48,51 0,115 137,184 266,184l98 0c167,0 267,-53 267,-201 0,-57 -20,-100 -72,-133 43,-33 63,-82 63,-132 0,-157 -124,-202 -278,-202l-63 0c-129,0 -265,69 -265,179 0,43 34,51 47,51l55 0c26,0 47,-12 62,-43 21,-42 60,-57 117,-57l34 0zm640 408c-72,0 -109,-17 -109,-73 0,-55 37,-72 109,-72l91 0c73,0 109,17 109,72 0,56 -36,73 -109,73l-91 0zm68 -408c73,0 110,17 110,68 0,51 -37,68 -110,68l-47 0c-73,0 -110,-17 -110,-68 0,-51 37,-68 110,-68l47 0zm-66 -130c-137,0 -259,51 -259,191 0,48 16,84 63,122 -63,33 -89,91 -89,153 0,135 115,202 263,202l131 0c148,0 263,-67 263,-202 0,-62 -26,-120 -89,-153 47,-38 63,-74 63,-122 0,-140 -122,-191 -259,-191l-87 0zm1107 130c97,0 174,48 174,204 0,156 -77,204 -174,204 -97,0 -174,-48 -174,-204 0,-156 77,-204 174,-204zm-16 -130c-183,0 -332,80 -332,334 0,254 149,334 332,334l32 0c183,0 332,-80 332,-334 0,-254 -149,-334 -332,-334l-32 0zm603 255l0 -17c0,-88 37,-108 108,-108l85 0c47,0 80,14 94,38 19,31 36,43 63,43l55 0c12,0 47,-8 47,-51 0,-91 -105,-160 -243,-160l-117 0c-165,0 -265,54 -265,238l0 204c0,173 100,226 267,226l101 0c167,0 267,-53 267,-207 0,-153 -100,-206 -267,-206l-195 0zm179 130c73,0 109,17 109,76 0,60 -36,77 -109,77l-69 0c-73,0 -110,-17 -110,-96l0 -57 179 0zm433 241c-9,18 1,38 27,38l94 0c27,0 48,-20 61,-43l241 -449c13,-22 29,-54 29,-84l0 -42c0,-24 -20,-44 -45,-44l-494 0c-24,0 -44,20 -44,44l0 43c0,25 20,44 44,44l354 0 -267 493zm982 -624c-24,0 -50,6 -68,22l-113 98c-12,10 -23,22 -9,41l35 45c9,11 28,16 40,6l53 -38 0 446c0,23 20,42 44,42l86 0c24,0 44,-19 44,-43l0 -575c0,-24 -20,-44 -44,-44l-68 0zm668 411l0 17c0,88 -37,108 -107,108l-85 0c-48,0 -81,-14 -95,-38 -19,-31 -36,-43 -62,-43l-55 0c-12,0 -47,8 -47,51 0,91 105,160 242,160l118 0c165,0 265,-54 265,-238l0 -204c0,-173 -100,-226 -267,-226l-101 0c-168,0 -268,53 -268,206 0,154 100,207 268,207l194 0zm-178 -130c-73,0 -110,-17 -110,-77 0,-59 37,-76 110,-76l69 0c72,0 109,17 109,96l0 57 -178 0zm580 -281c-24,0 -50,6 -68,22l-113 98c-12,10 -23,22 -9,41l35 45c9,11 28,16 40,6l53 -38 0 446c0,23 20,42 44,42l86 0c24,0 44,-19 44,-43l0 -575c0,-24 -20,-44 -44,-44l-68 0zm898 666c167,0 267,-54 267,-209 0,-155 -100,-210 -267,-210l-154 0 0 -116 344 0c25,0 44,-19 44,-44l0 -43c0,-25 -19,-44 -44,-44l-475 0c-24,0 -43,19 -43,44l0 291c0,23 20,42 43,42l269 0c72,0 109,20 109,80 0,59 -37,79 -109,79l-73 0c-47,0 -84,-15 -98,-41 -17,-31 -36,-43 -63,-43l-54 0c-13,0 -48,8 -48,51 0,93 109,163 247,163l105 0zm684 0c167,0 268,-54 268,-209 0,-155 -101,-210 -268,-210l-154 0 0 -116 345 0c25,0 44,-19 44,-44l0 -43c0,-25 -19,-44 -44,-44l-475 0c-24,0 -43,19 -43,44l0 291c0,23 19,42 43,42l268 0c73,0 110,20 110,80 0,59 -37,79 -110,79l-72 0c-48,0 -84,-15 -99,-41 -17,-31 -36,-43 -62,-43l-55 0c-12,0 -47,8 -47,51 0,93 109,163 247,163l104 0zm838 -413l0 -17c0,-88 37,-108 108,-108l85 0c47,0 80,14 94,38 19,31 36,43 62,43l55 0c12,0 47,-8 47,-51 0,-91 -104,-160 -242,-160l-117 0c-166,0 -266,54 -266,238l0 204c0,173 100,226 267,226l102 0c167,0 267,-53 267,-207 0,-153 -100,-206 -267,-206l-195 0zm178 130c73,0 110,17 110,76 0,60 -37,77 -110,77l-68 0c-73,0 -110,-17 -110,-96l0 -57 178 0zm340 169l0 67c0,24 20,43 45,43l512 0c24,0 44,-19 44,-43l0 -43c0,-25 -20,-44 -44,-44l-383 0c0,-106 433,-49 433,-314 0,-175 -124,-220 -278,-220l-62 0c-129,0 -266,69 -266,179 0,43 35,51 48,51l54 0c27,0 48,-12 63,-43 21,-42 60,-57 117,-57l33 0c81,0 117,19 117,90 0,128 -433,48 -433,334z"/>
 </g>
</svg>
